<?xml version="1.0" standalone="no"?>
<!DOCTYPE svg PUBLIC "-//W3C//DTD SVG 20010904//EN"
 "http://www.w3.org/TR/2001/REC-SVG-20010904/DTD/svg10.dtd">
<svg version="1.0" xmlns="http://www.w3.org/2000/svg"
 width="1402.000000pt" height="1232.000000pt" viewBox="0 0 1402.000000 1232.000000"
 preserveAspectRatio="xMidYMid meet">

<g transform="translate(0.000000,1232.000000) scale(0.100000,-0.100000)"
fill="#000000" stroke="none">
<path d="M9029 12179 c-258 -206 -454 -307 -741 -383 -188 -50 -336 -72 -718
-106 -386 -35 -533 -56 -713 -101 -114 -29 -239 -72 -264 -92 -17 -12 -16 -2
1 31 53 102 116 371 116 493 l0 79 -45 0 c-44 0 -45 -1 -85 -64 -23 -36 -68
-90 -101 -121 -107 -98 -210 -150 -694 -350 -397 -164 -528 -234 -685 -364
-93 -77 -217 -210 -317 -338 -53 -68 -97 -123 -98 -123 -2 0 -1 10 2 23 6 20
4 20 -21 -6 -24 -26 -27 -27 -43 -12 -13 14 -15 31 -9 113 7 107 35 256 66
354 34 109 25 148 -35 148 -63 0 -364 -238 -566 -447 -201 -208 -320 -382
-485 -711 l-103 -204 -29 59 c-83 163 -168 393 -198 531 -15 73 -21 85 -43 94
-32 12 -68 -4 -80 -34 -16 -44 -61 -314 -72 -442 -17 -184 -6 -706 20 -960 12
-110 20 -201 18 -202 -1 -1 -81 69 -177 157 -184 167 -221 190 -272 170 -22
-8 -28 -17 -28 -41 0 -25 92 -357 235 -845 14 -49 42 -143 61 -207 19 -65 50
-172 69 -238 19 -65 35 -131 35 -146 0 -15 -14 -42 -34 -66 -53 -62 -70 -104
-74 -190 -6 -113 20 -163 130 -256 109 -91 151 -153 150 -226 0 -63 -15 -120
-42 -163 l-20 -33 -108 0 c-119 0 -193 -15 -275 -56 -162 -81 -260 -214 -311
-419 -42 -172 -45 -424 -7 -615 45 -226 147 -473 253 -614 92 -122 243 -256
382 -338 l46 -28 0 -125 c0 -142 10 -224 46 -370 71 -288 188 -560 358 -830
31 -49 31 -50 32 -195 l0 -145 -80 12 c-45 6 -129 12 -187 12 -84 1 -170 13
-410 56 -361 66 -349 64 -350 81 -3 28 -4 32 -12 40 -4 4 -7 -1 -8 -12 -1 -41
-18 20 -18 69 -1 39 -4 47 -18 45 -11 -2 -19 5 -21 17 -2 11 -11 26 -20 33
-14 11 -14 12 1 12 9 0 17 4 17 9 0 6 -9 8 -20 6 -16 -3 -20 2 -20 26 0 18 -4
28 -10 24 -5 -3 -10 1 -10 10 0 10 5 13 12 9 7 -4 8 -3 4 5 -4 6 -12 9 -17 5
-16 -9 -37 15 -32 36 4 15 0 20 -16 20 -22 0 -24 9 -22 90 l0 35 -13 -40 c-8
-22 -14 -35 -15 -28 -1 6 -4 20 -7 30 -5 15 -4 15 5 3 7 -9 11 -10 11 -3 0 6
-4 14 -9 17 -4 3 -11 24 -15 46 -3 22 -11 40 -16 40 -7 0 -7 -7 0 -21 7 -11
10 -23 7 -25 -11 -11 -34 74 -29 110 3 26 0 41 -9 47 -12 7 -11 9 1 9 13 0 13
1 0 10 -10 6 -11 10 -2 10 6 0 12 5 12 10 0 7 -6 7 -19 1 -17 -10 -18 -1 -20
192 -3 234 4 313 25 296 12 -10 14 3 14 72 0 51 4 79 9 70 5 -7 11 -9 14 -4 5
8 26 184 28 237 1 18 3 17 14 -9 12 -26 14 9 15 283 0 302 -1 312 -19 312 -11
0 -23 5 -26 10 -3 6 -1 10 5 10 6 0 8 4 5 10 -3 6 -15 10 -26 10 -21 0 -26 16
-6 23 6 3 -12 8 -41 12 -29 4 -56 13 -60 19 -3 6 -5 65 -4 131 3 136 -13 218
-54 272 -78 103 -198 78 -299 -62 -16 -22 -39 -53 -52 -68 l-22 -28 -9 33 c-7
25 -14 33 -31 32 -17 -1 -21 4 -18 18 3 11 -2 22 -15 29 -19 10 -20 8 -14 -23
6 -31 5 -31 -5 -8 -28 60 -39 89 -39 98 0 16 -89 221 -131 303 -90 173 -200
243 -305 193 -53 -25 -69 -81 -69 -239 0 -98 6 -157 23 -237 12 -58 25 -123
28 -144 4 -37 3 -36 -52 42 -146 203 -291 361 -366 398 -81 41 -169 31 -205
-22 -15 -22 -18 -47 -18 -142 0 -108 2 -121 38 -221 21 -59 67 -166 103 -239
35 -73 63 -134 61 -136 -1 -2 -81 33 -176 77 -95 44 -195 84 -221 88 -58 9
-155 -2 -177 -21 -48 -40 -58 -168 -19 -246 34 -67 140 -178 251 -263 53 -40
93 -74 91 -76 -2 -2 -48 -8 -101 -14 -112 -10 -193 -41 -222 -85 -26 -41 -25
-143 2 -181 35 -47 136 -90 280 -118 169 -33 207 -44 200 -56 -4 -5 -11 -7
-16 -4 -5 4 -9 1 -9 -4 0 -6 7 -11 15 -11 8 0 15 -9 15 -19 0 -13 8 -21 23
-23 14 -2 21 -9 19 -20 -2 -12 6 -18 25 -20 19 -2 27 -8 25 -19 -2 -12 8 -18
38 -23 46 -7 53 -23 13 -29 -16 -2 5 -5 45 -6 46 0 71 -5 67 -11 -3 -5 0 -10
7 -10 9 0 9 -3 -2 -10 -11 -7 -2 -10 32 -10 34 0 50 -5 57 -17 10 -17 10 -17
11 0 0 9 5 17 10 17 6 0 9 -3 9 -7 -5 -30 3 -43 26 -43 14 0 33 -10 43 -21 9
-12 28 -32 41 -44 28 -27 30 -34 77 -411 l37 -301 -26 -34 c-38 -50 -51 -115
-44 -227 5 -105 29 -201 58 -243 11 -16 34 -31 56 -36 l37 -8 22 -105 c46
-220 82 -347 109 -388 40 -61 231 -208 458 -353 40 -25 72 -52 72 -60 0 -8 9
-14 20 -14 22 -1 67 -24 47 -25 -22 0 -3 -20 20 -20 11 0 22 -8 25 -20 3 -11
14 -20 24 -20 17 0 24 -11 20 -33 -1 -6 55 -12 86 -8 6 1 15 -4 19 -10 5 -9 2
-10 -9 -6 -10 3 -17 2 -17 -2 0 -14 32 -22 45 -11 9 8 12 4 10 -15 -3 -18 1
-25 15 -25 29 0 67 -24 62 -39 -3 -8 0 -11 7 -7 6 4 18 0 27 -9 10 -10 24 -13
36 -9 11 3 18 2 15 -3 -11 -18 11 -35 47 -36 39 -1 51 -16 14 -18 -13 -1 11
-9 52 -20 41 -10 60 -17 42 -15 -18 1 -31 -2 -29 -7 1 -5 16 -11 31 -13 44 -5
56 -12 50 -29 -5 -12 2 -15 32 -17 22 0 48 -1 59 0 18 1 17 0 -4 -12 -24 -13
-24 -13 15 -21 54 -10 81 -25 63 -35 -9 -6 -4 -11 17 -15 16 -4 40 -11 54 -15
l25 -8 -25 -1 c-44 -2 0 -21 47 -21 30 0 49 -6 63 -20 11 -11 30 -20 42 -21
22 0 22 -1 3 -9 -19 -8 -19 -9 3 -9 13 -1 20 -5 17 -11 -4 -6 7 -10 24 -10 17
0 31 -4 31 -10 0 -5 8 -10 18 -11 11 -1 9 -4 -8 -9 -21 -7 -18 -8 16 -7 44 0
68 -9 59 -23 -3 -5 6 -12 20 -16 14 -3 25 -10 25 -15 0 -5 6 -9 13 -9 20 -1
57 -37 58 -57 1 -13 3 -11 9 7 7 21 8 22 10 5 1 -20 1 -20 9 0 9 23 11 16 41
-185 22 -150 90 -504 99 -518 5 -8 193 -21 303 -22 18 0 29 -7 33 -20 3 -11
13 -20 21 -20 8 0 14 -10 14 -25 0 -16 6 -25 16 -25 9 0 18 -9 21 -20 4 -13
14 -20 30 -20 16 0 27 -7 30 -20 5 -18 14 -20 112 -21 109 -1 109 -6 -4 -28
-22 -5 793 -9 1810 -9 1199 0 1838 3 1815 10 -19 5 -51 13 -70 17 -26 7 -7 9
75 11 61 1 119 5 130 10 l20 9 -20 1 c-18 1 -17 2 4 11 14 5 34 11 45 13 12 2
21 9 21 17 0 8 12 15 28 17 20 2 27 8 23 18 -3 9 3 16 19 20 14 3 25 12 25 19
0 11 32 26 62 29 18 2 18 16 0 16 -14 0 -20 5 -16 14 3 8 11 13 19 10 7 -3 15
2 19 11 3 9 10 13 16 10 6 -3 13 1 16 9 3 9 14 16 24 16 10 0 20 9 23 21 3 12
10 18 15 15 5 -3 26 0 48 6 37 11 38 12 14 18 -27 8 -35 5 88 26 33 6 34 8 13
13 -19 5 -11 9 38 19 34 7 66 10 71 7 5 -3 11 -1 14 4 4 5 -8 11 -26 13 -26 3
-19 5 27 11 131 17 149 20 135 24 -42 13 -43 17 -5 24 22 4 61 8 87 8 56 1 85
10 67 21 -6 5 24 11 67 15 92 8 116 13 109 25 -5 9 39 16 157 26 43 4 75 10
73 14 -9 14 26 20 123 21 99 0 178 16 97 19 -96 3 -63 15 49 18 134 3 224 18
131 22 l-50 3 45 8 c25 4 72 8 105 9 49 2 55 4 30 10 l-30 8 30 2 c29 2 29 2
5 9 -24 7 -24 7 9 14 18 4 46 7 62 7 15 0 31 5 34 10 3 6 1 10 -6 10 -28 0 8
19 41 22 23 2 35 8 35 18 0 9 15 18 43 24 46 10 55 22 20 29 -13 2 -2 5 25 6
39 1 47 4 47 20 0 14 10 21 35 25 37 7 46 22 18 29 -10 3 0 5 23 6 47 1 58 9
43 27 -9 11 -7 15 5 19 9 3 23 7 32 10 8 3 13 9 10 14 -3 5 10 12 29 15 19 4
39 15 45 26 5 10 20 20 32 22 16 2 22 9 20 22 -2 11 1 15 8 11 13 -8 42 14 34
26 -3 5 4 9 15 9 12 0 22 5 22 10 1 6 2 16 3 22 0 7 8 13 16 14 8 1 18 2 23 4
4 1 11 3 16 4 21 3 23 16 3 16 -32 0 -27 18 6 22 19 2 26 8 24 20 -1 9 7 22
18 28 11 6 20 17 20 26 0 8 10 18 23 23 12 5 21 12 20 17 -4 16 9 54 18 54 5
0 14 11 19 25 5 14 15 24 22 23 8 -2 14 9 16 25 2 20 9 27 25 28 20 1 20 2 -3
9 -23 7 -23 11 -1 14 13 2 26 16 26 29 0 7 10 13 23 15 16 2 22 8 18 18 -4 9
3 18 19 24 16 6 23 15 19 25 -6 13 6 20 29 16 4 0 7 8 7 19 0 13 10 24 25 30
29 11 33 27 8 33 -13 3 -11 5 7 7 14 1 28 2 33 1 4 0 7 8 7 20 0 12 8 23 20
26 23 6 26 19 8 26 -14 6 25 11 56 7 11 -1 16 3 11 9 -3 6 -10 9 -15 6 -5 -3
-11 -1 -14 4 -4 5 12 12 35 16 34 6 40 10 36 26 -4 15 0 19 24 19 21 0 27 4
23 15 -4 9 1 17 10 20 9 3 23 7 32 10 13 4 14 8 5 19 -10 12 -8 13 8 9 12 -3
21 -1 21 6 0 6 8 11 19 11 10 0 21 9 24 21 3 11 11 19 19 18 28 -3 40 1 35 14
-3 9 10 17 40 25 24 7 42 16 39 21 -8 12 18 21 57 21 21 0 27 3 19 9 -18 11 7
31 45 35 15 1 27 8 25 14 -1 7 4 13 10 14 7 0 18 2 23 3 6 2 24 4 40 5 30 2
30 2 5 10 -24 8 -24 8 -2 9 12 1 22 7 22 16 0 11 12 15 43 16 23 1 53 5 67 9
l25 8 -25 1 c-53 3 5 21 70 22 36 1 79 5 95 9 l30 8 -30 1 c-23 1 -27 3 -15
11 8 5 58 10 110 11 52 0 115 4 140 8 44 8 44 9 10 11 -33 2 -33 3 -10 10 14
4 48 8 77 9 58 1 85 9 77 22 -3 5 1 9 9 9 27 0 77 53 77 82 0 15 4 30 10 33 6
3 10 -2 10 -12 1 -15 2 -16 10 -3 11 20 18 675 7 686 -4 5 -12 2 -16 -5 -7
-10 -10 -9 -16 8 -3 11 -13 21 -21 21 -8 0 -14 8 -14 19 0 10 -7 24 -15 31
-13 11 -13 15 -3 21 10 7 8 9 -5 9 -15 0 -15 4 7 38 35 54 49 107 44 169 -7
77 -30 105 -106 123 -66 16 -71 22 -73 95 0 31 -2 35 -9 20 -6 -17 -9 -13 -15
20 -13 75 -13 75 -63 76 -26 1 -39 3 -29 6 23 6 22 23 -2 23 -11 0 -22 8 -24
18 -4 16 -5 16 -6 0 -1 -11 -6 -15 -16 -12 -9 4 -15 0 -15 -7 0 -11 -3 -11
-10 1 -9 13 -13 11 -30 -10 -13 -17 -6 9 22 80 34 88 42 120 46 198 6 108 -7
157 -50 199 -24 23 -39 28 -98 31 -61 4 -78 1 -126 -23 -72 -35 -266 -229
-313 -312 -9 -17 -10 -17 -29 1 -14 12 -28 16 -43 11 -16 -6 -18 -9 -8 -16 14
-8 12 -9 -34 -23 -10 -3 -9 26 2 138 23 225 -2 379 -69 428 -64 46 -162 30
-227 -38 -85 -88 -178 -343 -280 -769 -22 -92 -26 -94 -63 -39 -82 120 -273
276 -379 311 -20 6 -29 12 -21 13 8 1 2 8 -15 15 -19 9 -24 14 -12 15 11 0 17
8 17 25 0 19 5 25 21 25 14 0 19 5 16 15 -4 8 -2 17 4 20 5 4 8 14 7 23 -2 11
3 16 15 16 13 -1 17 6 17 32 0 18 5 36 10 39 6 3 10 1 10 -6 0 -25 20 6 22 34
2 25 18 40 18 17 0 -5 5 -10 10 -10 6 0 10 11 10 24 0 14 5 28 10 31 6 3 10 1
10 -5 0 -6 5 -8 10 -5 6 3 10 15 10 26 0 11 10 24 23 29 23 9 71 56 73 72 3
21 6 22 14 3 8 -19 9 -19 9 3 1 12 6 23 11 23 6 1 16 2 23 3 6 1 11 9 9 19 -3
16 8 21 36 18 6 -1 12 4 12 12 0 8 11 19 25 25 14 6 25 16 25 21 0 5 20 13 45
17 34 5 55 16 88 48 24 22 47 41 53 42 5 0 11 13 14 30 3 16 11 29 19 29 8 0
19 18 25 40 8 26 14 36 20 27 11 -18 26 -5 26 23 0 13 8 32 19 42 10 10 22 28
25 41 4 12 14 22 22 22 9 0 14 7 12 18 -2 11 5 18 20 20 15 2 22 9 20 20 -2
11 5 18 18 20 12 2 24 11 26 20 4 12 17 18 41 20 21 2 47 7 59 12 l23 9 -25 2
c-59 4 39 17 145 19 112 2 224 15 175 20 -14 2 34 6 105 10 152 9 213 19 193
31 -9 6 -2 9 20 9 27 0 35 6 49 36 14 29 15 37 4 43 -8 5 -10 14 -7 20 4 6 -4
22 -19 35 l-25 24 47 6 c57 8 136 30 216 58 l57 21 0 43 c0 51 2 49 -137 99
-206 74 -442 169 -434 175 5 3 12 22 16 42 4 21 12 36 18 35 6 -1 13 8 15 21
3 17 8 21 22 17 15 -5 21 0 25 18 5 20 15 26 48 32 34 6 38 8 22 15 -16 6 -7
10 38 20 33 8 57 19 57 26 0 16 23 23 83 25 44 2 69 18 30 20 -43 1 25 18 82
19 46 2 54 4 35 10 -23 7 -23 11 -1 14 5 0 13 4 17 9 4 4 21 7 38 7 45 0 80
11 66 20 -8 5 5 11 31 15 70 10 84 16 68 25 -13 9 21 22 65 24 14 1 20 7 18
19 -3 16 2 19 38 21 8 1 17 12 20 26 3 14 12 25 20 25 11 0 15 14 15 55 0 41
-3 54 -13 52 -8 -1 -16 7 -19 18 -3 13 -14 20 -29 20 -12 0 -26 5 -29 11 -4 6
-13 8 -21 5 -13 -5 -19 6 -15 27 1 5 -9 5 -21 2 -44 -14 -10 6 139 80 83 41
158 81 167 90 21 22 22 91 0 99 -9 3 -59 11 -112 17 -133 14 -344 54 -417 78
-33 11 -51 20 -40 21 11 0 27 5 35 11 12 8 8 9 -15 5 -16 -3 -24 -3 -17 0 6 3
9 11 6 16 -4 7 -2 8 4 4 7 -4 17 3 23 18 7 14 15 23 19 21 11 -7 33 23 25 35
-4 6 8 10 32 10 47 0 77 15 50 26 -23 8 -11 24 19 24 13 0 24 5 24 10 0 6 7
10 15 10 8 0 15 4 15 9 0 5 11 12 25 15 14 4 25 13 25 20 0 8 6 14 13 13 38
-1 77 4 76 11 -4 22 3 34 15 29 16 -6 40 16 29 26 -3 4 -3 7 2 7 4 0 14 -8 21
-17 12 -16 13 -16 7 4 -4 20 -1 22 38 25 35 2 43 7 41 20 -2 12 6 18 25 20 20
2 28 9 28 22 0 12 8 20 20 21 34 3 66 16 60 25 -3 4 10 13 28 19 23 9 28 14
18 20 -17 11 -3 20 38 23 18 1 31 8 31 15 0 8 11 18 24 22 13 5 26 17 29 25 4
9 15 16 26 16 11 0 24 6 28 13 8 13 38 29 58 31 5 1 10 10 10 21 0 13 8 21 23
23 14 2 22 10 22 23 0 12 7 19 20 19 13 0 20 7 20 20 0 14 6 20 18 18 11 -2
18 4 20 19 2 15 11 23 30 25 19 2 26 8 24 21 -2 11 4 17 18 17 15 0 20 6 20
25 0 15 6 25 15 25 14 0 30 31 53 98 9 29 8 38 -11 68 -21 32 -26 34 -82 36
-50 1 -53 2 -17 5 57 6 53 23 -5 25 -70 2 -87 -1 -96 -17 -4 -8 -16 -15 -25
-14 -11 0 -12 2 -4 6 7 2 17 14 23 25 12 23 2 19 -36 -11 l-20 -16 20 25 c37
45 45 51 56 44 7 -4 9 -3 6 3 -3 5 65 80 153 166 168 165 187 196 160 247 -10
19 -18 21 -63 17 -29 -2 -90 -16 -137 -30 -47 -14 -125 -33 -175 -41 -103 -19
-390 -40 -405 -31 -17 11 1 26 22 19 18 -5 20 -3 14 20 -4 15 -2 26 4 26 5 0
10 7 10 15 0 8 7 15 15 15 9 0 20 11 25 25 5 14 14 25 20 25 5 0 10 9 10 20 0
12 10 24 23 30 12 5 15 9 7 9 -10 1 -7 6 8 17 12 8 22 22 22 30 0 8 7 14 15
14 8 0 15 9 15 20 0 11 7 20 16 20 8 0 20 14 26 30 8 25 13 28 24 19 16 -13
21 -3 26 46 2 18 9 30 18 30 8 0 17 11 21 25 4 14 7 21 8 16 2 -18 30 17 36
46 5 23 9 27 16 17 7 -11 10 -9 15 9 4 12 10 22 15 22 5 0 9 7 9 15 0 8 4 15
9 15 6 0 13 21 17 48 4 26 9 41 11 34 7 -19 23 -3 23 24 0 19 5 24 25 24 22 0
25 5 25 33 0 17 5 39 10 47 6 10 10 11 10 3 0 -7 5 -13 10 -13 6 0 10 28 11
63 0 53 2 58 11 37 l11 -25 8 35 c8 39 13 114 11 176 l-2 41 -60 12 c-40 8
-60 17 -60 27 0 10 -12 14 -40 14 -35 0 -40 -3 -40 -22 0 -19 -2 -20 -10 -8
-9 13 -11 13 -20 0 -5 -8 -10 -10 -10 -4 0 6 7 17 15 24 8 6 13 15 12 18 -1 4
22 59 51 123 28 64 63 148 77 187 29 84 34 176 9 186 -37 14 -85 3 -208 -51
-192 -82 -316 -129 -446 -167 -139 -41 -319 -80 -327 -72 -4 3 1 6 10 6 9 0
14 6 12 13 -3 6 -1 26 4 42 l9 30 10 -25 c9 -21 11 -15 12 40 1 36 4 59 7 53
9 -24 22 -13 33 27 11 40 24 51 33 28 3 -7 6 8 6 35 1 41 4 47 22 47 14 0 19
5 16 15 -4 8 -2 17 4 21 5 3 7 15 4 25 -5 14 -2 20 7 18 29 -4 38 2 38 26 0
17 4 23 14 19 10 -4 16 6 21 35 5 31 11 41 26 41 16 0 19 7 19 44 0 29 5 46
14 49 8 3 17 1 19 -6 2 -7 5 7 5 30 1 51 7 64 27 56 12 -4 15 7 15 65 0 66 11
99 23 70 3 -7 6 22 6 65 1 44 -3 76 -8 73 -5 -3 -14 8 -20 24 -9 26 -15 30
-48 31 -30 0 -34 2 -18 9 18 8 18 9 -5 10 -23 2 -23 3 5 10 47 11 7 22 -65 18
-33 -1 -60 -3 -60 -2 0 4 59 145 97 234 72 165 79 223 27 233 -27 5 -37 3
-169 -33 -536 -143 -1151 -241 -1785 -286 -259 -19 -681 -23 -719 -7 -23 9
-19 13 63 58 115 63 220 106 364 151 64 21 120 41 123 46 3 5 6 21 5 36 -1 37
-33 50 -155 62 -114 12 -193 6 -536 -41 -121 -16 -292 -36 -380 -43 -173 -15
-405 -21 -405 -11 0 4 29 48 64 98 65 95 141 229 216 379 35 72 41 92 36 122
-6 34 -9 36 -45 36 -32 0 -53 -13 -152 -91z m70 -96 c-115 -209 -166 -282
-287 -404 -112 -115 -113 -113 55 -130 193 -19 461 2 888 71 66 11 155 24 198
30 88 11 274 14 263 3 -3 -4 -52 -22 -107 -40 -55 -18 -137 -50 -182 -72 -86
-40 -298 -179 -304 -198 -2 -6 32 -17 89 -28 286 -52 903 -26 1543 66 444 63
718 116 1003 191 106 28 195 48 198 46 13 -14 -202 -456 -328 -673 -152 -262
-282 -467 -362 -570 -61 -78 -226 -245 -299 -303 -42 -33 -57 -51 -55 -66 12
-85 961 102 1368 269 58 23 154 66 214 94 60 28 113 51 117 51 17 0 9 -25 -54
-170 -72 -165 -190 -377 -312 -560 -337 -503 -650 -732 -1076 -790 -87 -12
-116 -27 -106 -54 9 -23 39 -32 199 -60 288 -51 411 -61 758 -61 353 0 422 6
624 56 65 17 121 27 125 23 6 -6 -65 -75 -249 -238 -243 -215 -400 -337 -636
-494 -371 -245 -640 -363 -1031 -449 -116 -25 -173 -42 -173 -50 0 -19 123
-96 244 -154 223 -106 715 -239 984 -265 39 -3 72 -10 72 -14 0 -23 -367 -179
-595 -253 -198 -65 -243 -77 -590 -163 -170 -42 -318 -80 -327 -85 -10 -6 -18
-16 -18 -24 0 -15 62 -95 138 -180 142 -157 326 -257 714 -390 106 -36 200
-68 208 -71 20 -8 -45 -31 -140 -50 -129 -26 -326 -34 -583 -24 -261 10 -415
28 -570 65 -54 13 -105 21 -113 18 -18 -7 -18 -17 1 -117 12 -63 15 -142 13
-344 -2 -144 -7 -262 -12 -262 -4 -1 -21 37 -36 82 -49 146 -133 312 -253 501
-32 49 -35 51 -54 39 -10 -6 -10 -23 -3 -68 11 -66 2 -159 -25 -285 -29 -132
-118 -389 -130 -377 -7 6 -28 118 -80 418 -56 321 -70 394 -96 485 -37 132
-70 215 -86 215 -12 0 -14 -9 -8 -51 l7 -50 -88 93 c-704 739 -1544 1405
-2099 1663 -176 82 -212 97 -350 149 -516 194 -1076 290 -1765 303 -573 10
-1001 -34 -1448 -149 -334 -87 -363 -95 -512 -146 -165 -56 -284 -104 -385
-155 -38 -20 -71 -33 -72 -29 -58 179 -345 1193 -368 1301 l-7 34 28 -22 c16
-13 49 -41 74 -64 25 -23 97 -89 160 -147 63 -58 121 -111 128 -117 20 -19 60
-16 67 5 3 11 -9 153 -27 318 -30 277 -32 325 -32 654 -1 290 2 380 17 490 10
74 22 139 27 143 4 5 23 -40 43 -100 63 -195 130 -353 202 -476 35 -60 42 -67
70 -67 30 0 33 5 65 78 155 357 241 513 395 717 83 110 283 325 341 367 28 21
158 124 209 167 11 9 35 27 53 39 l32 23 -6 -38 c-3 -21 -17 -94 -31 -163 -46
-229 -39 -412 19 -529 34 -68 54 -63 103 29 154 286 445 607 668 738 118 69
178 97 422 195 310 125 514 218 629 285 70 41 165 128 208 190 17 24 32 42 33
40 9 -9 -50 -233 -86 -323 -47 -121 -96 -206 -169 -292 -77 -92 -76 -91 -63
-104 9 -9 30 -1 87 35 271 169 575 251 1116 301 525 48 675 73 915 151 215 70
420 184 595 332 46 40 88 72 93 72 5 0 -11 -35 -34 -77z m3292 -880 c13 -16
12 -17 -3 -4 -17 13 -22 21 -14 21 2 0 10 -8 17 -17z m244 -2353 c3 -5 -1 -10
-10 -10 -9 0 -13 5 -10 10 3 6 8 10 10 10 2 0 7 -4 10 -10z m465 -440 c0 -5
-4 -10 -10 -10 -5 0 -10 5 -10 10 0 6 5 10 10 10 6 0 10 -4 10 -10z m-550
-735 c0 -8 -4 -15 -10 -15 -5 0 -10 7 -10 15 0 8 5 15 10 15 6 0 10 -7 10 -15z
m-4825 -83 c17 -8 46 -25 65 -37 19 -12 69 -41 110 -65 315 -182 596 -385 955
-694 152 -131 368 -342 486 -475 107 -120 116 -130 177 -194 53 -55 56 -62 60
-118 6 -75 -15 -119 -134 -284 -142 -197 -265 -334 -375 -415 -75 -57 -154
-93 -184 -86 -11 3 -90 74 -175 158 -353 348 -753 671 -1195 965 -79 52 -191
117 -375 216 -112 61 -130 95 -106 208 22 104 64 211 147 379 155 312 269 455
383 480 33 7 109 -11 161 -38z m-4610 -737 c79 -20 228 -94 302 -149 117 -88
272 -271 365 -430 91 -155 193 -419 248 -640 15 -61 32 -112 38 -114 8 -2 8 7
1 31 -8 31 -2 52 54 193 60 150 306 870 322 942 4 20 15 37 28 43 32 13 448
25 627 18 236 -10 501 -51 774 -120 143 -36 150 -39 251 -125 110 -94 169
-158 283 -309 54 -72 110 -137 124 -145 24 -13 42 -11 180 14 169 32 198 40
198 57 0 12 -127 7 -176 -7 -19 -5 -27 5 -62 78 -22 45 -59 112 -82 147 -22
35 -40 65 -38 66 5 5 200 -76 333 -137 357 -164 774 -431 1060 -677 129 -111
291 -268 285 -274 -3 -3 -37 3 -75 14 -179 50 -383 61 -656 34 -569 -56 -1195
-180 -1822 -361 -103 -30 -191 -54 -196 -54 -5 0 -46 32 -92 71 -228 194 -519
340 -789 395 -131 26 -348 15 -505 -26 -380 -99 -723 -256 -882 -403 l-32 -30
-38 23 c-209 126 -378 302 -470 491 -54 109 -104 256 -139 405 -24 104 -28
140 -28 279 0 93 5 185 12 220 59 276 172 414 387 476 76 22 135 23 210 4z
m1295 -144 c0 -54 -292 -908 -347 -1014 -15 -30 -15 -30 -53 119 -74 293 -176
515 -321 701 l-49 63 35 14 c61 26 372 89 580 119 57 8 155 7 155 -2z m1990
-247 c41 -17 83 -62 149 -159 48 -70 111 -181 111 -196 0 -11 -76 -22 -100
-14 -11 3 -61 61 -112 128 -51 67 -136 167 -190 222 -54 55 -98 101 -98 102 0
3 193 -64 240 -83z m-5101 -19 c55 -52 129 -186 186 -340 41 -109 68 -196 63
-199 -2 -2 -37 -8 -79 -14 -42 -6 -111 -22 -155 -36 -43 -14 -79 -24 -81 -22
-2 1 -20 74 -40 162 -32 141 -37 175 -37 299 -1 119 2 145 17 168 27 42 67 37
126 -18z m-601 -151 c44 -29 155 -146 213 -224 78 -105 199 -287 199 -299 0
-5 -15 -13 -32 -16 -54 -12 -178 -73 -235 -115 l-53 -40 -49 97 c-151 303
-206 472 -181 562 19 70 66 82 138 35z m1361 -350 c36 -86 37 -157 7 -303 -15
-69 -28 -126 -30 -128 -2 -3 -25 12 -52 32 -58 45 -121 77 -196 101 -32 10
-58 21 -58 24 0 18 63 158 94 208 35 57 94 120 131 140 38 20 77 -7 104 -74z
m-1593 -319 c86 -41 158 -75 160 -75 3 0 16 -7 29 -16 l25 -16 -38 -47 c-54
-65 -89 -128 -106 -191 -8 -30 -19 -54 -25 -53 -11 3 -95 60 -146 101 -73 57
-177 170 -200 216 -29 58 -31 92 -9 124 43 62 110 52 310 -43z m10249 -495
c-3 -5 -12 -10 -18 -10 -7 0 -6 4 3 10 19 12 23 12 15 0z m-10249 -67 c-2 -10
-10 -65 -17 -122 l-13 -103 -53 6 c-49 6 -137 40 -174 69 -24 18 -41 56 -34
76 17 55 101 89 223 90 65 1 73 -1 68 -16z m10642 -78 c35 -44 45 -117 39
-264 -4 -75 -16 -194 -27 -266 -11 -71 -20 -133 -20 -137 0 -3 -17 -4 -37 -2
-21 2 -104 6 -185 10 -128 5 -148 8 -148 23 0 20 111 378 138 446 71 178 181
265 240 190z m699 -217 c33 -37 43 -64 43 -116 0 -59 -22 -137 -61 -214 -22
-44 -200 -338 -215 -356 -1 -2 -33 20 -71 49 -37 29 -110 72 -160 96 -51 24
-93 46 -93 49 0 5 154 216 204 279 61 76 157 174 197 200 64 41 125 46 156 13z
m-9947 -173 c0 -3 34 -138 75 -300 41 -162 75 -303 75 -313 0 -14 -30 -27
-136 -62 -75 -25 -138 -50 -140 -55 -3 -6 146 -162 331 -348 201 -203 335
-344 335 -356 0 -30 -24 -45 -52 -30 -13 6 -177 165 -366 353 -189 188 -345
342 -346 344 -2 2 -77 -31 -167 -73 -90 -42 -171 -79 -179 -81 -13 -4 -22 51
-58 348 -23 194 -43 359 -42 366 0 6 12 12 26 12 99 0 365 78 526 154 88 42
118 53 118 41z m-950 -69 c0 -11 -19 -15 -25 -6 -3 5 1 10 9 10 9 0 16 -2 16
-4z m10291 -83 c-8 -15 -10 -15 -11 -2 0 17 10 32 18 25 2 -3 -1 -13 -7 -23z
m-1014 -13 c68 -30 153 -93 223 -164 62 -63 63 -66 45 -81 -11 -8 -24 -15 -28
-15 -18 0 -116 -74 -175 -132 -50 -50 -65 -59 -72 -48 -5 8 -34 69 -64 135
-98 219 -101 325 -8 325 20 0 56 -9 79 -20z m1863 -295 c0 -8 -2 -15 -4 -15
-2 0 -6 7 -10 15 -3 8 -1 15 4 15 6 0 10 -7 10 -15z m84 -96 c34 -16 47 -58
34 -106 -7 -26 -34 -61 -87 -114 -64 -63 -96 -85 -199 -138 -68 -34 -125 -61
-126 -59 -1 2 -10 41 -20 88 -10 47 -27 111 -38 143 -11 33 -16 63 -12 67 10
10 308 116 345 123 45 8 78 7 103 -4z m-2026 -130 c7 46 40 -76 62 -231 11
-81 27 -166 35 -188 14 -40 14 -41 -20 -86 -19 -25 -39 -64 -45 -87 -5 -23
-13 -53 -18 -67 -4 -13 -54 -64 -112 -113 -58 -49 -169 -143 -247 -208 l-141
-120 -64 -3 c-94 -4 -203 -61 -237 -124 -6 -11 -11 -43 -11 -70 0 -43 -5 -54
-35 -85 -33 -34 -40 -37 -96 -37 -32 0 -68 -5 -78 -12 -16 -9 -38 -7 -113 11
-51 12 -98 23 -104 23 -16 2 -10 31 7 36 11 3 11 1 -1 -7 -18 -13 -3 -13 25
-1 11 5 14 9 8 9 -23 2 -13 19 15 26 15 4 21 10 14 12 -17 7 -5 23 19 23 12 0
19 7 19 19 0 13 8 21 23 23 12 2 22 9 22 16 0 6 5 12 10 13 6 0 15 5 22 11 7
5 17 7 23 3 5 -3 10 -2 10 4 0 5 -8 11 -17 13 -12 3 -3 11 30 26 26 13 47 27
47 32 0 6 9 10 20 10 13 0 20 7 20 20 0 13 7 20 19 20 10 0 21 7 25 15 3 8 12
15 21 15 9 0 15 9 15 24 0 16 5 23 17 22 9 0 22 10 29 23 11 22 12 22 23 5 9
-17 11 -15 12 11 1 17 1 36 0 43 -1 7 9 12 24 12 18 0 25 5 25 20 0 14 7 20
21 20 15 0 19 5 15 18 -5 13 1 22 16 30 14 6 17 11 8 11 -10 1 -8 6 7 16 13 9
20 22 17 30 -4 10 0 15 15 15 17 0 21 6 22 33 1 38 16 92 18 64 2 -34 21 -6
21 31 0 39 11 65 26 62 5 0 10 5 11 12 12 84 15 92 26 73 10 -19 10 -19 18 0
4 11 8 37 8 57 1 36 21 67 21 32 0 -10 3 -14 8 -10 7 8 9 13 11 46 1 13 8 20
20 20 13 0 21 8 23 23 2 12 9 21 16 19 6 -1 12 2 12 8 0 5 -5 10 -12 10 -6 0
-3 6 8 14 10 8 19 20 19 28 0 7 6 14 13 14 6 1 17 2 23 3 6 0 8 10 4 21 -5 15
-2 20 10 20 9 0 19 9 22 19 3 11 17 21 34 25 19 3 29 12 29 23 0 14 2 15 9 4
7 -11 11 -10 20 7 6 12 17 19 25 16 8 -3 16 3 19 15 3 14 11 19 20 15 8 -3 18
-1 21 5 4 6 13 8 21 4 10 -3 15 1 16 13 0 18 1 18 10 -1 7 -15 8 -10 4 20 -4
36 -4 38 7 15 l11 -25 5 24z m-7728 -249 c0 -5 -4 -10 -10 -10 -5 0 -10 5 -10
10 0 6 5 10 10 10 6 0 10 -4 10 -10z m1430 -50 c-13 -8 -12 -10 3 -10 13 0 17
-6 15 -22 -5 -32 -28 -35 -28 -4 0 14 -6 26 -12 26 -9 0 -8 4 2 10 8 5 20 10
25 10 6 0 3 -5 -5 -10z m84 -22 c18 -35 21 -68 6 -68 -5 0 -10 14 -10 30 0 18
-5 29 -12 28 -7 -2 -13 7 -14 20 -2 31 12 27 30 -10z m-128 -23 c-4 -14 -11
-25 -17 -25 -8 0 -7 5 1 15 10 12 10 15 -3 15 -8 0 -17 -7 -21 -15 -3 -8 -11
-15 -17 -15 -7 0 -5 8 6 20 10 11 24 20 32 20 7 0 13 5 13 12 0 6 3 9 6 5 4
-3 4 -18 0 -32z m109 -35 c3 -5 1 -10 -4 -10 -6 0 -11 5 -11 10 0 6 2 10 4 10
3 0 8 -4 11 -10z m-203 -59 c-8 -4 -8 -20 -1 -51 5 -24 8 -53 6 -64 -3 -15 -5
-13 -7 9 -1 17 -6 41 -11 55 -6 18 -8 6 -5 -40 2 -36 1 -54 -2 -40 -4 24 -5
24 -13 5 -6 -13 -7 0 -3 35 7 62 33 133 41 111 3 -7 1 -16 -5 -20z m306 -12
c13 -15 25 -39 26 -53 4 -30 13 -43 23 -32 4 4 1 11 -7 16 -8 5 -11 12 -7 16
5 5 47 -31 47 -40 0 -1 -32 -2 -70 -4 l-70 -3 0 41 c0 36 2 40 26 40 24 0 24
1 10 22 -16 23 -23 51 -8 33 4 -6 18 -22 30 -36z m-51 -1 c-3 -8 -6 -5 -6 6
-1 11 2 17 5 13 3 -3 4 -12 1 -19z m7969 -29 c154 -27 224 -69 224 -133 0 -34
-56 -96 -115 -125 -47 -23 -171 -50 -237 -51 -33 0 -38 3 -38 23 0 26 30 266
36 285 4 15 51 15 130 1z m-7777 -113 c21 -23 21 -24 3 -28 -24 -7 -52 7 -31
14 12 4 12 7 0 21 -21 26 3 20 28 -7z m-452 -63 c-10 -23 -27 -31 -27 -13 0 6
5 10 10 10 6 0 10 15 11 33 0 26 2 28 8 12 5 -11 4 -30 -2 -42z m508 19 c-3
-3 -11 0 -18 7 -9 10 -8 11 6 5 10 -3 15 -9 12 -12z m73 -42 c51 -32 51 -38
-1 -17 -29 13 -68 47 -53 47 3 0 27 -13 54 -30z m-73 10 c3 -5 1 -10 -4 -10
-6 0 -11 5 -11 10 0 6 2 10 4 10 3 0 8 -4 11 -10z m-497 -26 c-2 -10 10 -20
37 -30 46 -16 82 -18 50 -3 -15 7 -9 8 20 4 24 -4 35 -2 27 3 -9 6 -3 9 17 9
25 0 27 -2 15 -14 -13 -14 -101 -21 -149 -12 -22 4 -35 27 -28 47 7 17 14 15
11 -4z m522 -4 c0 -5 -4 -10 -10 -10 -5 0 -10 5 -10 10 0 6 5 10 10 10 6 0 10
-4 10 -10z m-300 -20 c0 -5 -4 -10 -10 -10 -5 0 -10 5 -10 10 0 6 5 10 10 10
6 0 10 -4 10 -10z m50 0 c0 -15 -39 -32 -63 -27 -18 4 -17 5 6 6 17 0 27 7 27
16 0 8 7 15 15 15 8 0 15 -4 15 -10z m6250 -10 c0 -22 246 -254 358 -338 100
-74 120 -93 109 -104 -7 -7 -100 -110 -206 -228 -107 -118 -221 -242 -252
-276 l-58 -61 -47 71 c-98 148 -259 337 -372 438 -32 29 -60 57 -61 61 -2 11
500 445 517 446 6 1 12 -3 12 -9z m-6907 -7 c-7 -2 -19 -2 -25 0 -7 3 -2 5 12
5 14 0 19 -2 13 -5z m1096 -21 c59 -27 60 -28 27 -28 -20 0 -32 4 -29 10 4 5
0 7 -8 4 -49 -19 -55 -18 -56 4 -2 16 0 19 6 9 6 -8 11 -9 15 -3 4 6 -2 15
-11 21 -34 19 -6 11 56 -17z m-1019 8 c0 -5 -4 -10 -10 -10 -5 0 -10 5 -10 10
0 6 5 10 10 10 6 0 10 -4 10 -10z m60 0 c8 -5 12 -11 10 -14 -3 -2 -14 2 -24
10 -22 15 -10 19 14 4z m430 1 c0 -6 -4 -13 -10 -16 -5 -3 -10 1 -10 9 0 9 5
16 10 16 6 0 10 -4 10 -9z m-337 -18 c-4 -10 -9 -10 -18 -3 -6 5 -15 7 -18 3
-4 -3 -7 -1 -7 5 0 7 11 11 24 10 15 -1 22 -7 19 -15z m300 10 c-7 -2 -19 -2
-25 0 -7 3 -2 5 12 5 14 0 19 -2 13 -5z m-227 -13 c13 0 24 -3 24 -8 0 -4 -20
-6 -45 -4 -26 2 -42 8 -39 14 3 5 13 7 21 4 8 -3 26 -6 39 -6z m321 4 c-3 -3
-12 -4 -19 -1 -8 3 -5 6 6 6 11 1 17 -2 13 -5z m-577 -13 c0 -17 -18 -21 -24
-6 -3 9 0 15 9 15 8 0 15 -4 15 -9z m128 -61 c1 -18 -1 -21 -8 -11 -4 8 -6 21
-2 29 3 9 1 13 -4 9 -6 -3 -11 4 -11 15 -2 20 -2 20 11 2 7 -10 13 -30 14 -44z
m48 13 c2 -24 1 -25 -7 -10 -6 10 -8 21 -5 24 3 4 0 13 -6 22 -10 13 -10 14 2
4 7 -7 15 -25 16 -40z m84 23 c0 -9 15 -15 44 -17 32 -3 42 -1 39 9 -4 10 0
10 20 1 16 -7 31 -8 42 -2 11 7 36 6 73 -3 32 -6 75 -15 97 -19 38 -6 39 -7
17 -19 -21 -11 -21 -12 13 -12 20 0 30 3 22 8 -8 5 -7 8 6 8 10 0 22 -10 27
-22 5 -13 9 -17 9 -10 1 20 41 14 41 -7 0 -10 7 -24 15 -31 21 -17 19 -30 -6
-30 -11 0 -18 -4 -15 -9 10 -15 58 -10 52 5 -3 8 -4 14 -2 14 3 0 12 3 22 7
11 4 15 3 10 -5 -4 -7 4 -10 24 -10 17 1 33 5 36 10 5 8 -9 12 -33 9 -7 -1
-13 6 -13 15 0 11 5 14 18 9 9 -4 30 -12 45 -17 22 -8 25 -13 15 -19 -10 -6
-8 -9 8 -9 11 0 25 -5 32 -12 7 -7 12 -8 12 -4 0 5 -8 15 -17 23 -10 8 -1 5
20 -6 21 -12 44 -21 51 -21 7 0 20 -6 30 -13 17 -13 18 -14 2 -20 -9 -4 -15
-3 -12 2 7 11 -54 34 -63 25 -3 -4 -1 -9 5 -11 6 -2 20 -11 30 -19 10 -9 14
-13 7 -10 -6 4 -14 2 -18 -4 -8 -13 62 -12 90 1 16 8 14 8 -10 4 -27 -4 -28
-3 -9 6 16 8 28 7 50 -5 28 -15 28 -15 4 -13 -15 1 -25 -4 -28 -14 -4 -19 88
-62 112 -53 9 3 16 1 16 -5 0 -6 5 -11 12 -11 6 0 3 9 -8 21 -10 11 -20 16
-22 10 -6 -18 -19 -13 -25 9 -3 11 -2 20 1 20 14 0 72 -40 73 -50 1 -5 2 -13
3 -18 3 -18 43 -59 63 -64 22 -6 22 -5 5 18 -9 13 -23 24 -29 24 -11 0 -20 20
-10 20 13 0 91 -45 125 -72 68 -55 86 -68 95 -68 5 0 7 -6 4 -14 -4 -9 1 -16
11 -18 15 -3 14 -6 -4 -16 -19 -10 -21 -9 -20 16 1 24 -2 27 -29 24 -16 -2
-32 -6 -34 -8 -7 -7 21 -34 35 -34 8 0 17 -12 20 -27 7 -26 8 -26 15 -6 4 12
17 27 28 33 17 9 20 8 15 -5 -4 -8 -11 -15 -16 -15 -6 0 -8 -7 -4 -15 3 -8 1
-15 -4 -15 -6 0 -10 -4 -10 -9 0 -13 67 -19 86 -8 10 6 20 5 26 -1 6 -6 0 -12
-16 -16 -14 -3 -26 -11 -26 -17 0 -6 -5 -7 -10 -4 -6 4 -8 11 -5 16 4 5 -5 9
-19 9 -29 0 -76 19 -76 32 0 4 -10 8 -22 7 -21 0 -21 -1 -4 -8 14 -5 16 -10 7
-15 -6 -4 -19 -2 -27 5 -13 10 -14 2 -12 -64 3 -71 10 -95 20 -65 3 7 10 8 17
4 10 -7 10 -10 1 -16 -9 -6 -6 -14 10 -30 18 -18 24 -20 32 -9 6 10 7 7 3 -8
-3 -13 -3 -24 2 -24 71 -10 70 -12 15 44 -29 29 -52 60 -52 69 0 9 -9 23 -19
30 -16 12 -17 16 -6 32 8 10 21 16 32 13 16 -4 15 -6 -4 -12 -13 -4 -23 -11
-23 -16 0 -13 12 -11 34 6 22 17 76 20 76 6 0 -5 16 -15 35 -22 19 -7 35 -17
35 -21 0 -4 5 -8 10 -8 20 0 9 20 -14 26 -17 4 -23 11 -19 21 4 11 18 2 55
-37 27 -29 52 -49 55 -46 4 4 -10 23 -30 44 -20 21 -37 42 -37 47 0 5 23 -14
51 -43 31 -31 48 -56 43 -64 -5 -7 -2 -9 7 -6 8 3 22 -5 32 -18 10 -13 13 -24
7 -24 -5 0 -10 -5 -10 -11 0 -6 8 -8 19 -4 14 4 23 0 31 -16 9 -17 9 -20 0
-14 -8 5 -11 3 -8 -6 3 -8 10 -13 17 -12 12 3 47 -45 38 -53 -3 -3 -16 -7 -30
-8 -19 -2 -28 4 -40 30 -12 25 -13 34 -4 38 8 4 9 8 1 11 -29 14 -49 36 -36
41 15 7 6 24 -13 24 -9 0 -12 -6 -9 -17 5 -14 4 -15 -4 -4 -6 8 -7 21 -4 30 5
14 3 14 -10 3 -9 -8 -19 -9 -22 -4 -3 6 4 12 16 15 12 4 20 9 16 12 -3 3 -18
1 -33 -5 -27 -10 -27 -11 -10 -30 10 -11 20 -18 22 -16 3 2 13 -4 24 -15 15
-15 17 -24 10 -37 -6 -10 -11 -12 -11 -4 0 6 -6 12 -12 12 -7 0 36 -49 96
-109 99 -99 126 -119 126 -91 0 5 -7 7 -15 4 -16 -7 -21 11 -6 21 5 3 17 -5
25 -17 18 -25 21 -42 6 -33 -16 10 -12 -5 11 -37 12 -16 27 -27 35 -24 9 3 11
0 7 -12 -3 -9 -3 -14 2 -10 4 4 23 -13 42 -37 19 -25 40 -45 48 -45 8 0 15 -5
15 -12 0 -6 3 -8 6 -5 4 4 1 13 -6 22 -10 12 -10 18 1 32 12 14 12 16 -2 11
-14 -5 -17 10 -9 42 0 3 8 -8 17 -25 11 -20 12 -30 4 -33 -6 -2 -11 -8 -11
-13 0 -6 5 -7 12 -3 7 4 8 3 4 -4 -4 -7 -1 -12 6 -12 7 0 19 -9 26 -20 7 -11
18 -20 25 -20 18 0 40 -47 26 -55 -5 -4 -8 -2 -7 3 2 6 -14 26 -34 45 -51 46
-48 30 4 -26 34 -38 43 -44 52 -32 15 20 61 24 61 6 0 -8 -7 -16 -15 -18 -13
-4 -13 -3 0 6 19 13 9 22 -18 14 -29 -7 -28 -15 6 -35 15 -10 22 -18 15 -18
-6 0 -15 5 -18 10 -3 6 -11 10 -17 10 -6 0 -2 -10 10 -23 30 -32 29 -75 -2
-83 -30 -7 -51 4 -102 58 -131 136 -139 144 -128 113 4 -8 10 -15 15 -15 17 0
9 -30 -11 -42 -11 -7 -20 -18 -20 -25 0 -7 -4 -13 -10 -13 -5 0 -7 -8 -4 -17
5 -14 4 -15 -4 -4 -13 18 -4 49 20 65 14 10 18 20 13 35 -3 12 -10 21 -15 21
-5 0 -7 7 -4 15 7 17 -10 41 -39 57 -14 7 -17 7 -13 -1 4 -6 2 -11 -5 -11 -10
0 -10 -3 -1 -12 28 -28 -4 -78 -74 -114 -34 -18 -39 -18 -24 1 10 12 9 15 -4
15 -10 0 -14 -4 -11 -10 3 -5 2 -10 -4 -10 -20 0 -22 22 -2 27 12 3 21 9 21
13 0 5 -10 6 -22 2 -12 -3 -19 -1 -15 4 7 12 -38 12 -49 1 -5 -4 0 -5 10 -1
12 5 17 4 13 -3 -8 -12 25 -53 42 -53 6 0 11 -6 11 -13 0 -6 32 -45 71 -86 63
-66 74 -73 90 -62 14 8 25 8 39 1 14 -7 20 -7 20 0 0 5 7 10 15 10 8 0 15 7
15 17 0 15 -1 15 -18 0 -33 -30 -37 -18 -4 14 18 18 32 43 35 62 4 31 4 31 5
-5 1 -20 6 -39 11 -42 11 -7 22 -73 15 -90 -4 -11 -11 -11 -28 -3 -14 7 -21
17 -18 25 4 12 1 12 -15 4 -11 -6 -23 -8 -27 -5 -3 3 -6 1 -6 -5 0 -7 -5 -12
-11 -12 -6 0 -9 7 -5 15 3 8 1 15 -4 15 -20 0 -16 -17 12 -49 25 -28 34 -32
59 -27 19 3 28 2 24 -4 -3 -6 -1 -10 5 -10 6 0 8 -5 4 -12 -6 -9 -9 -9 -12 0
-4 14 -32 16 -32 2 0 -5 7 -10 15 -10 27 0 18 -56 -12 -80 l-28 -21 33 5 c18
3 32 1 32 -4 0 -6 -10 -10 -23 -10 -13 0 -28 -5 -34 -11 -9 -9 -14 -5 -19 17
-6 25 -34 57 -153 175 -7 8 -41 42 -76 77 l-62 62 -36 -15 c-21 -8 -40 -15
-43 -14 -4 0 -10 -3 -13 -8 -3 -5 -33 -22 -66 -37 -33 -15 -68 -32 -77 -37
-12 -6 -18 -6 -18 1 0 5 6 10 13 10 8 0 7 4 -3 10 -8 5 -32 10 -52 10 -31 0
-38 -4 -38 -19 0 -11 -6 -22 -12 -24 -8 -3 -7 -6 4 -6 9 -1 20 -6 24 -13 5 -8
2 -9 -10 -5 -11 4 -28 -1 -43 -13 -14 -11 -33 -20 -42 -20 -9 0 -24 -7 -34
-15 -11 -7 -26 -11 -35 -8 -10 4 -13 2 -8 -5 5 -8 -4 -12 -28 -12 -19 0 -38 5
-41 10 -3 6 -16 10 -28 9 -21 0 -21 -1 -2 -9 18 -7 17 -8 -10 -13 -21 -3 -18
-4 7 -2 53 4 57 -11 5 -19 -29 -4 -61 -1 -100 12 -59 18 -69 36 -15 25 l30 -6
-16 26 c-10 14 -24 28 -32 31 -8 3 -14 12 -14 21 0 8 -5 15 -11 15 -7 0 -9
-11 -6 -27 2 -16 2 -36 -2 -46 -7 -18 -8 -18 -21 -2 -8 9 -19 26 -25 37 -7 14
-22 22 -48 24 -43 4 -42 -7 3 -26 16 -7 30 -17 30 -23 0 -8 -3 -8 -11 0 -6 6
-18 9 -27 6 -10 -4 -13 -2 -8 5 4 7 5 12 2 12 -2 0 -12 3 -22 7 -12 4 -15 3
-10 -5 5 -8 2 -10 -9 -5 -13 5 -14 7 -3 14 10 7 11 9 0 9 -7 0 -10 5 -7 10 3
6 1 10 -4 10 -6 0 -11 18 -11 40 0 36 -3 40 -24 40 -13 0 -26 -6 -29 -12 -4
-10 -7 -10 -18 0 -7 6 -22 11 -33 11 -20 -1 -20 -2 -2 -6 16 -4 11 -8 -19 -19
-58 -20 -93 -7 -85 31 1 6 -4 4 -11 -2 -15 -15 -33 -17 -24 -3 3 6 -1 10 -11
10 -12 0 -14 3 -6 13 8 10 7 17 -7 28 -9 8 -22 15 -27 16 -5 1 -18 5 -29 9
-17 6 -17 4 4 -14 13 -12 28 -19 32 -16 5 3 9 -2 9 -11 0 -18 -18 -11 -65 29
-25 22 -28 27 -15 36 8 5 27 10 43 10 15 0 27 5 27 10 0 6 -11 10 -25 10 -32
0 -79 22 -65 30 8 5 8 15 1 34 -14 36 -21 196 -10 221 7 15 8 13 4 -10 -4 -22
-3 -26 4 -14 6 9 7 33 4 55 -6 36 -7 37 -14 14 -5 -17 -7 -19 -8 -7 -1 10 4
28 10 39 14 26 13 192 -1 196 -5 2 -10 28 -10 58 0 41 4 54 15 54 9 0 15 9 15
25 0 22 -4 25 -39 25 l-39 0 -5 53 c-3 28 -8 63 -12 77 -5 17 -4 21 3 12 6
-10 9 -5 8 17 -1 27 -3 29 -13 15 -10 -14 -11 -7 -6 37 3 30 10 56 15 57 4 2
8 21 8 43 0 37 -2 39 -30 39 -27 0 -30 -3 -30 -30 0 -21 -5 -30 -16 -30 -13 0
-15 7 -10 33 4 23 3 28 -4 17 -8 -12 -10 -11 -10 8 0 12 6 22 13 23 10 0 10 2
0 6 -7 2 -13 13 -13 24 0 10 -4 19 -8 19 -10 0 -35 50 -28 57 2 3 11 -8 19
-23 l14 -28 13 25 c12 22 12 23 -5 9 -16 -14 -17 -12 -10 18 6 29 4 34 -14 39
-24 6 -29 33 -6 33 8 0 15 9 15 20 0 11 7 20 15 20 8 0 15 -6 15 -14z m367 8
c-3 -3 -12 -4 -19 -1 -8 3 -5 6 6 6 11 1 17 -2 13 -5z m98 -26 c5 -5 -6 -3
-25 3 -19 6 -39 16 -45 21 -5 5 6 3 25 -3 19 -6 39 -16 45 -21z m85 28 c0 -2
-18 -6 -39 -8 -22 -2 -37 0 -35 4 5 8 74 11 74 4z m55 -21 c-22 -8 -42 -15
-45 -15 -3 0 9 -9 25 -21 17 -11 23 -18 15 -15 -8 3 -23 9 -32 12 -10 4 -18
10 -18 15 0 5 -15 10 -32 10 -30 1 -29 2 9 8 24 4 46 10 49 14 4 4 21 7 38 7
31 -1 30 -1 -9 -15z m302 9 c-3 -3 -12 -4 -19 -1 -8 3 -5 6 6 6 11 1 17 -2 13
-5z m28 -13 c-10 -18 29 -29 100 -29 39 0 81 -5 94 -10 17 -6 -8 -8 -80 -6
-57 1 -119 3 -136 3 -18 1 -33 5 -33 11 0 5 15 7 33 5 l32 -5 -35 12 c-34 11
-35 11 -10 18 36 11 42 11 35 1z m60 -11 c13 -6 15 -9 5 -9 -8 0 -22 4 -30 9
-18 12 -2 12 25 0z m-358 -23 c9 -18 8 -24 -2 -24 -7 0 -11 6 -8 14 3 7 -2 13
-10 13 -9 0 -19 5 -22 10 -3 6 2 10 13 10 10 0 24 -10 29 -23z m-875 -41 c-3
-5 -9 -1 -13 10 -12 31 -10 39 5 19 8 -11 12 -24 8 -29z m1977 -20 c0 -6 -3
-5 -6 2 -10 26 -19 10 -18 -33 1 -25 7 -51 13 -57 9 -9 12 -8 12 5 0 9 -5 17
-11 17 -5 0 -7 5 -4 11 5 6 13 2 22 -11 13 -19 13 -24 2 -31 -13 -8 -11 -10 8
-8 4 0 11 -8 15 -18 6 -12 6 -8 3 11 -6 26 -4 28 9 17 9 -8 16 -9 16 -3 0 15
-26 33 -35 24 -4 -4 -4 3 -1 15 6 18 3 21 -18 19 -17 -2 -23 1 -19 10 9 25 32
15 58 -26 l25 -39 -24 -45 c-14 -27 -22 -56 -20 -73 l4 -28 -10 25 c-8 18 -8
31 0 49 8 17 8 27 0 35 -7 7 -10 5 -10 -6 0 -9 -4 -19 -8 -22 -4 -2 -7 8 -6
22 1 30 -13 55 -27 46 -9 -5 -14 25 -9 55 1 12 -1 13 -14 2 -8 -7 -12 -20 -9
-29 4 -14 3 -14 -5 -3 -6 8 -8 20 -5 28 4 9 0 11 -13 7 -11 -4 -16 -4 -12 1 4
4 17 8 29 9 12 0 24 7 27 14 2 8 -3 10 -15 7 -10 -3 -8 -1 5 6 26 14 24 33 -4
36 -10 2 -14 0 -7 -3 8 -4 4 -13 -14 -30 -31 -29 -31 -29 -29 -6 0 10 -6 17
-16 16 -18 -2 -32 22 -18 31 5 3 18 -5 29 -17 12 -12 21 -17 21 -11 0 7 7 19
16 28 15 15 19 14 45 -11 16 -15 29 -33 28 -38z m-1902 -1 c-5 -15 -30 -12
-35 5 -5 13 -3 13 11 1 10 -8 17 -9 17 -3 0 6 -4 14 -10 17 -5 3 -10 12 -10
18 0 7 7 3 15 -8 9 -10 14 -24 12 -30z m133 30 c0 -8 -2 -15 -4 -15 -2 0 -6 7
-10 15 -3 8 -1 15 4 15 6 0 10 -7 10 -15z m830 -3 c3 -3 -14 -2 -37 1 -24 3
-43 1 -43 -4 0 -9 28 -14 63 -11 9 1 17 -3 17 -8 0 -6 -6 -10 -12 -10 -9 0 -8
-4 2 -10 32 -20 -7 -9 -48 15 -23 13 -49 22 -57 19 -8 -4 -15 -1 -15 6 0 6 3
9 8 7 4 -3 16 -1 27 3 20 7 85 2 95 -8z m781 -52 c48 -54 66 -86 55 -97 -3 -4
-6 1 -6 10 0 13 -5 15 -25 7 -24 -9 -25 -8 -25 28 -1 52 -23 79 -52 65 -13 -7
-70 -13 -128 -16 -92 -3 -97 -3 -40 5 145 20 164 23 167 35 3 8 -6 9 -30 3
-19 -4 -56 -6 -83 -5 -48 3 -48 2 -9 -5 35 -6 36 -7 10 -8 -32 -2 -135 19
-135 28 0 3 57 5 126 5 l125 0 50 -55z m-1065 38 c-10 -6 -22 -6 -26 -2 -5 5
3 10 18 11 22 1 24 0 8 -9z m-730 -10 c4 -7 3 -8 -4 -4 -7 4 -12 2 -12 -5 0
-7 -3 -10 -6 -6 -6 5 3 27 11 27 2 0 7 -5 11 -12z m108 -38 c-6 -5 -24 21 -24
34 0 6 6 1 14 -10 8 -10 12 -21 10 -24z m1426 30 c0 -5 -9 -10 -20 -10 -11 0
-20 -4 -20 -10 0 -5 -18 -10 -40 -10 -22 0 -40 5 -40 10 0 6 18 10 40 10 22 0
40 5 40 10 0 6 9 10 20 10 11 0 20 -4 20 -10z m-1527 -30 c3 -11 1 -18 -4 -14
-5 3 -9 12 -9 20 0 20 7 17 13 -6z m1757 10 c0 -5 -2 -10 -4 -10 -3 0 -8 5
-11 10 -3 6 -1 10 4 10 6 0 11 -4 11 -10z m-1730 -29 c-13 -26 -13 -32 3 -28
7 1 13 -10 13 -28 l2 -30 -5 28 c-4 26 -6 27 -17 11 -12 -15 -13 -14 -11 13 2
28 11 53 21 53 3 0 0 -9 -6 -19z m1075 -11 c3 0 4 4 1 9 -3 5 9 11 27 13 20 2
34 -1 34 -7 0 -7 -12 -10 -26 -8 -25 3 -25 3 3 -8 21 -9 25 -14 15 -20 -19
-12 -32 -11 -24 1 6 9 -8 14 -28 11 -10 -2 -67 28 -67 35 0 2 13 -2 30 -11 16
-8 32 -15 35 -15z m105 -60 c0 -7 6 -7 18 -2 9 5 25 7 34 3 15 -5 13 -8 -7
-18 -17 -7 -23 -8 -18 0 4 6 0 8 -10 4 -8 -3 -21 1 -27 9 -9 10 -9 14 -1 14 6
0 11 -5 11 -10z m860 -92 c9 -35 9 -50 0 -65 -11 -16 -11 -17 -6 0 7 22 -13
106 -31 128 -7 8 -13 22 -13 30 0 24 37 -43 50 -93z m-180 46 c0 -7 5 -14 12
-16 6 -2 9 -11 6 -18 -3 -10 -12 -4 -26 20 -26 41 -30 77 -7 46 8 -11 15 -25
15 -32z m-563 14 c-3 -8 -6 -5 -6 6 -1 11 2 17 5 13 3 -3 4 -12 1 -19z m-1157
-33 c0 -5 -5 -3 -10 5 -6 10 -10 11 -10 3 0 -7 -5 -13 -10 -13 -6 0 -5 8 2 20
9 14 14 16 20 7 4 -7 8 -16 8 -22z m1134 10 c17 -15 32 -22 43 -18 15 6 16 5
3 -9 -14 -15 -17 -15 -35 0 -11 10 -22 20 -25 23 -3 3 -14 11 -25 17 -16 9
-16 11 -4 12 9 0 28 -11 43 -25z m727 -21 c-9 -17 -10 -17 -11 -2 0 9 -3 25
-6 35 -6 17 -6 17 11 2 13 -13 15 -21 6 -35z m-34 -46 c-2 -13 -4 -3 -4 22 0
25 2 35 4 23 2 -13 2 -33 0 -45z m-1930 20 c-3 -7 -5 -2 -5 12 0 14 2 19 5 13
2 -7 2 -19 0 -25z m192 5 c0 -25 -1 -26 -9 -8 -12 27 -12 35 0 35 6 0 10 -12
9 -27z m1140 10 c-9 -9 -8 -17 1 -28 7 -8 9 -15 4 -15 -4 0 -3 -5 4 -12 7 -7
26 -12 44 -13 27 0 31 -4 32 -27 2 -26 0 -27 -19 -13 -11 9 -35 25 -52 38 -19
12 -31 28 -28 36 3 8 0 11 -9 8 -22 -9 -28 5 -8 23 21 21 47 23 31 3z m-1293
-40 c-11 -11 -19 6 -11 24 8 17 8 17 12 0 3 -10 2 -21 -1 -24z m74 18 c0 -5 3
-18 6 -28 3 -10 -1 -7 -11 7 -15 24 -15 24 -11 -25 l5 -50 -10 43 c-6 23 -16
42 -22 43 -7 0 -3 4 8 9 27 12 35 12 35 1z m58 -20 c6 -16 6 -34 1 -42 -6 -10
-8 -9 -7 6 1 11 -2 30 -6 43 -11 33 0 27 12 -7z m1659 7 c-3 -8 -6 -5 -6 6 -1
11 2 17 5 13 3 -3 4 -12 1 -19z m42 -40 c-5 -9 -10 -29 -10 -45 -1 -16 -5 -7
-9 22 -3 28 -4 58 -2 69 5 17 6 16 18 -5 8 -15 9 -30 3 -41z m107 40 c4 -13 8
-34 9 -47 0 -14 6 -26 13 -29 7 -2 12 -20 12 -40 -1 -36 -1 -36 -20 18 -11 30
-19 63 -20 73 0 9 -4 17 -8 17 -5 0 -9 -20 -9 -45 0 -25 4 -45 9 -45 4 0 8 -7
8 -16 0 -8 -4 -13 -9 -10 -13 8 -42 96 -31 96 4 0 11 11 14 25 8 31 22 32 32
3z m-1969 -20 c-3 -8 -6 -5 -6 6 -1 11 2 17 5 13 3 -3 4 -12 1 -19z m1493 -43
c0 -19 -5 -35 -11 -35 -25 0 -49 22 -49 45 0 21 5 25 30 25 28 0 30 -3 30 -35z
m-1470 4 c0 -5 -4 -9 -10 -9 -5 0 -10 7 -10 16 0 8 5 12 10 9 6 -3 10 -10 10
-16z m1807 -11 c-3 -8 -6 -5 -6 6 -1 11 2 17 5 13 3 -3 4 -12 1 -19z m50 -10
c-3 -8 -6 -5 -6 6 -1 11 2 17 5 13 3 -3 4 -12 1 -19z m-1702 -9 c-4 -13 -3
-19 2 -16 6 4 8 -5 5 -21 l-6 -27 -7 25 c-11 38 -10 60 2 60 6 0 8 -9 4 -21z
m1842 -31 c-2 -13 -4 -5 -4 17 -1 22 1 32 4 23 2 -10 2 -28 0 -40z m-1984 17
c4 -8 2 -17 -3 -20 -6 -4 -10 3 -10 14 0 25 6 27 13 6z m94 -27 c-3 -8 -6 -5
-6 6 -1 11 2 17 5 13 3 -3 4 -12 1 -19z m1328 2 c10 -11 16 -20 13 -20 -3 0
-13 9 -23 20 -10 11 -16 20 -13 20 3 0 13 -9 23 -20z m97 -19 c9 -19 15 -38
12 -42 -3 -5 4 -9 15 -9 12 0 21 -4 21 -10 0 -5 9 -10 21 -10 15 0 19 5 15 15
-3 8 -1 15 4 15 15 0 12 -26 -4 -39 -21 -18 -75 15 -94 58 -16 33 -39 46 -52
29 -3 -4 -11 1 -17 11 -10 15 -7 17 25 17 31 -1 39 -6 54 -35z m15 17 c-3 -8
-6 -5 -6 6 -1 11 2 17 5 13 3 -3 4 -12 1 -19z m330 0 c-3 -8 -6 -5 -6 6 -1 11
2 17 5 13 3 -3 4 -12 1 -19z m-377 -43 c0 -7 17 -27 37 -44 21 -17 33 -31 27
-31 -15 0 -96 85 -88 93 10 9 24 -2 24 -18z m-1320 -11 c0 -14 -4 -23 -9 -20
-5 3 -7 15 -4 26 7 28 13 25 13 -6z m1213 -5 c-5 -19 -7 -19 -22 -4 -14 14
-14 17 -1 25 20 12 29 4 23 -21z m494 -21 c-2 -13 -4 -5 -4 17 -1 22 1 32 4
23 2 -10 2 -28 0 -40z m100 15 c-3 -10 -5 -4 -5 12 0 17 2 24 5 18 2 -7 2 -21
0 -30z m2233 16 c0 -6 -4 -7 -10 -4 -5 3 -10 11 -10 16 0 6 5 7 10 4 6 -3 10
-11 10 -16z m-2281 0 c4 6 7 -5 7 -24 0 -19 -4 -35 -8 -35 -4 0 -8 9 -8 19 0
11 -2 25 -3 33 -2 7 -2 9 1 4 2 -4 7 -3 11 3z m81 -33 c0 -26 -6 -18 -14 19
-5 22 -4 26 4 15 5 -8 10 -24 10 -34z m2087 28 c-3 -3 -12 -4 -19 -1 -8 3 -5
6 6 6 11 1 17 -2 13 -5z m-4037 -14 c0 -5 -2 -10 -4 -10 -3 0 -8 5 -11 10 -3
6 -1 10 4 10 6 0 11 -4 11 -10z m1350 0 c0 -5 -2 -10 -4 -10 -3 0 -8 5 -11 10
-3 6 -1 10 4 10 6 0 11 -4 11 -10z m430 -36 c0 -19 -4 -34 -10 -34 -5 0 -10
18 -10 41 0 24 4 38 10 34 6 -3 10 -22 10 -41z m2013 29 c-7 -2 -19 -2 -25 0
-7 3 -2 5 12 5 14 0 19 -2 13 -5z m-54 -7 c-2 -2 -33 -6 -69 -9 -38 -3 -57 -1
-45 3 19 8 123 14 114 6z m-304 -21 c-38 -14 -85 -22 -85 -15 0 5 12 11 28 13
35 5 70 6 57 2z m363 -7 c2 7 11 12 20 12 13 0 11 -4 -6 -16 -24 -16 -85 -13
-97 5 -2 5 14 4 37 -2 31 -8 43 -7 46 1z m349 -63 c-3 -14 -5 -12 -6 8 0 16
-5 26 -10 23 -5 -4 -7 4 -3 16 5 21 5 21 14 -2 5 -13 7 -33 5 -45z m-2600 46
c9 8 13 8 13 0 0 -6 -5 -11 -11 -11 -5 0 -7 -5 -3 -12 4 -7 3 -8 -4 -4 -7 4
-12 3 -12 -2 0 -6 7 -12 15 -16 8 -3 15 -11 15 -17 0 -7 -11 -2 -25 11 -19 18
-22 26 -13 32 9 5 8 8 -5 8 -11 0 -15 5 -11 11 4 8 9 8 17 0 7 -7 14 -7 24 0z
m340 -28 c-3 -10 -5 -4 -5 12 0 17 2 24 5 18 2 -7 2 -21 0 -30z m1590 31 c-3
-3 -12 -4 -19 -1 -8 3 -5 6 6 6 11 1 17 -2 13 -5z m73 -4 c0 -5 -4 -10 -10
-10 -5 0 -10 5 -10 10 0 6 5 10 10 10 6 0 10 -4 10 -10z m92 -4 c-27 -6 -50
-5 -64 1 -17 7 -8 10 42 9 65 0 65 0 22 -10z m-1835 -28 c-3 -8 -6 -5 -6 6 -1
11 2 17 5 13 3 -3 4 -12 1 -19z m65 -30 c2 -20 0 -34 -4 -32 -4 3 -8 24 -7 47
1 47 6 41 11 -15z m-44 -38 c0 -44 -4 -80 -9 -80 -5 0 -9 -8 -10 -17 0 -12 -2
-13 -6 -5 -3 7 1 19 7 27 8 9 10 27 6 46 -5 27 2 109 9 109 2 0 3 -36 3 -80z
m109 33 c-3 -10 -5 -2 -5 17 0 19 2 27 5 18 2 -10 2 -26 0 -35z m-750 15 c-3
-8 -6 -5 -6 6 -1 11 2 17 5 13 3 -3 4 -12 1 -19z m724 -49 l-9 -34 -1 46 c-1
25 2 49 7 53 12 12 14 -29 3 -65z m1634 11 c-10 -38 -13 -82 -9 -145 3 -49 1
-110 -4 -135 -7 -33 -10 -38 -11 -17 -1 15 -6 27 -12 27 -7 0 -9 -10 -5 -27 4
-19 4 -23 -3 -14 -7 11 -10 8 -16 -10 -4 -13 -15 -33 -24 -43 -15 -18 -15 -19
2 -13 18 7 23 -3 8 -19 -5 -5 -12 -20 -14 -34 -5 -22 -5 -21 -5 5 0 46 -4 53
-12 20 -7 -29 -8 -29 -9 -4 0 15 8 38 19 52 11 14 27 42 35 61 9 20 21 36 28
36 15 0 21 86 7 95 -6 3 -10 12 -10 18 0 9 2 9 8 -1 5 -7 7 29 6 79 -1 57 1
87 7 78 6 -10 9 -7 9 12 0 23 9 43 16 36 2 -2 -3 -27 -11 -57z m672 13 c-3
-10 -5 -4 -5 12 0 17 2 24 5 18 2 -7 2 -21 0 -30z m-4194 7 c3 -11 1 -20 -4
-20 -5 0 -9 9 -9 20 0 11 2 20 4 20 2 0 6 -9 9 -20z m24 -2 c-3 -8 -6 -5 -6 6
-1 11 2 17 5 13 3 -3 4 -12 1 -19z m33 -35 c0 -43 -5 -41 -13 5 -4 18 -2 32 3
32 6 0 10 -16 10 -37z m-83 5 c-3 -8 -6 -5 -6 6 -1 11 2 17 5 13 3 -3 4 -12 1
-19z m144 -10 c1 -22 1 -22 8 2 5 19 10 3 19 -60 14 -101 15 -120 3 -120 -5 0
-12 24 -15 54 -4 29 -13 74 -21 100 -8 26 -10 46 -5 46 6 0 10 -10 11 -22z
m1472 15 c-7 -3 -13 -9 -13 -15 0 -6 7 -8 14 -5 10 4 13 1 9 -9 -5 -13 -8 -13
-24 2 -25 22 -24 30 4 31 12 0 16 -1 10 -4z m187 -33 c0 -33 -3 -40 -20 -40
-17 0 -20 7 -20 40 0 33 3 40 20 40 17 0 20 -7 20 -40z m2360 36 c0 -3 -4 -8
-10 -11 -5 -3 -10 -1 -10 4 0 6 5 11 10 11 6 0 10 -2 10 -4z m-4153 -48 c-3
-8 -6 -5 -6 6 -1 11 2 17 5 13 3 -3 4 -12 1 -19z m1880 -15 c-3 -10 -5 -4 -5
12 0 17 2 24 5 18 2 -7 2 -21 0 -30z m-607 7 c0 -5 -4 -10 -10 -10 -5 0 -10 5
-10 10 0 6 5 10 10 10 6 0 10 -4 10 -10z m-1193 -37 c-3 -10 -5 -4 -5 12 0 17
2 24 5 18 2 -7 2 -21 0 -30z m1553 27 c0 -5 -2 -10 -4 -10 -3 0 -8 5 -11 10
-3 6 -1 10 4 10 6 0 11 -4 11 -10z m283 -9 c-6 -3 -14 -24 -19 -46 -8 -38 -8
-38 -12 -11 -4 33 16 78 31 69 6 -3 6 -8 0 -12z m281 3 c18 -6 18 -8 -6 -20
-18 -9 -33 -10 -54 -4 l-29 10 30 -4 c17 -3 37 -1 44 3 9 6 1 10 -23 13 -55 6
-106 -2 -106 -18 0 -8 -5 -14 -11 -14 -6 0 -9 9 -6 20 3 11 2 20 -3 20 -12 0
-22 -49 -14 -72 4 -13 2 -18 -4 -14 -6 3 -13 0 -16 -6 -6 -14 5 71 13 100 2 4
165 -8 185 -14z m1956 -16 c0 -36 -4 -35 -14 5 -4 16 -2 27 4 27 5 0 10 -14
10 -32z m-2467 -5 c-4 -11 -2 -14 5 -9 7 4 12 3 12 -3 0 -5 3 -18 7 -28 6 -17
6 -17 -14 0 -15 13 -22 15 -25 6 -2 -6 -12 1 -23 17 l-18 29 21 -19 c21 -19
32 -10 12 10 -6 6 -3 10 10 11 13 1 17 -3 13 -14z m-167 -9 c-4 -9 -1 -23 5
-30 7 -9 8 -14 1 -14 -5 0 -15 14 -21 30 -8 25 -7 30 6 30 10 0 13 -6 9 -16z
m734 6 c8 -5 11 -10 5 -10 -5 0 -17 5 -25 10 -8 5 -10 10 -5 10 6 0 17 -5 25
-10z m653 3 c-7 -2 -19 -2 -25 0 -7 3 -2 5 12 5 14 0 19 -2 13 -5z m72 -45 l5
-22 -21 20 c-13 13 -17 27 -13 38 6 17 8 17 16 2 5 -9 11 -26 13 -38z m-882
35 c-7 -2 -13 -14 -13 -25 0 -15 5 -19 19 -15 10 2 25 1 32 -4 10 -6 11 -9 2
-9 -7 0 -13 -5 -13 -10 0 -6 10 -9 23 -7 12 2 16 2 9 0 -28 -10 2 -23 39 -17
32 5 39 4 39 -10 0 -9 8 -16 21 -16 13 0 18 4 13 13 -4 7 -3 9 2 4 5 -5 9 -14
9 -19 0 -6 6 -13 14 -16 9 -3 11 0 6 8 -6 9 -4 11 4 5 24 -14 -5 -28 -30 -14
-13 7 -33 17 -44 22 -11 6 -36 10 -56 8 -29 -1 -38 3 -49 24 -7 14 -19 25 -25
25 -6 0 -20 6 -31 14 -19 15 -19 15 1 30 11 8 25 15 30 15 6 0 4 -3 -2 -6z
m677 -10 c0 -2 -6 -3 -12 -2 -7 1 -26 -3 -41 -9 -46 -19 -56 -13 -13 7 35 16
66 18 66 4z m84 8 c3 -5 15 -7 26 -4 30 8 49 -3 43 -25 -5 -22 -74 -57 -95
-49 -9 4 -8 6 3 6 9 1 29 7 44 15 23 12 24 15 8 19 -15 4 -14 5 5 6 41 2 22
16 -25 18 -50 2 -87 23 -41 23 15 0 29 -4 32 -9z m-937 -37 c-5 -31 -47 -90
-47 -67 0 12 -58 36 -86 36 -13 0 -26 3 -29 7 -2 4 7 6 20 4 14 -1 25 2 25 7
0 5 5 9 11 9 5 0 8 -4 5 -9 -3 -5 1 -11 9 -15 8 -3 18 0 21 6 4 7 2 14 -5 16
-9 3 -9 7 0 18 20 24 30 15 25 -20 -4 -21 -1 -38 6 -42 7 -5 9 -2 5 8 -4 11 1
18 14 21 13 3 19 14 19 31 0 14 3 26 6 26 4 0 4 -16 1 -36z m333 19 c5 -5 -21
-23 -35 -23 -5 0 -4 4 4 9 11 7 11 10 0 17 -7 4 -14 3 -17 -4 -2 -6 -11 -8
-19 -5 -14 6 -14 7 3 14 17 7 52 3 64 -8z m70 7 c13 -8 13 -10 -2 -10 -9 0
-20 5 -23 10 -8 13 5 13 25 0z m-2306 -15 c-4 -8 -8 -15 -10 -15 -2 0 -4 7 -4
15 0 8 4 15 10 15 5 0 7 -7 4 -15z m33 -17 c-3 -7 -5 -2 -5 12 0 14 2 19 5 13
2 -7 2 -19 0 -25z m2976 6 c-2 -10 0 -30 3 -43 4 -18 10 -22 29 -19 17 4 22 1
17 -10 -3 -10 -1 -13 6 -8 7 4 15 0 19 -11 3 -10 13 -26 21 -35 19 -23 11 -43
-19 -43 -19 -1 -24 5 -26 25 l-1 25 19 -24 c31 -37 35 -16 5 24 -15 19 -34 35
-43 35 -20 0 -42 29 -43 57 0 12 -5 23 -12 25 -6 2 -8 10 -4 17 11 18 31 7 29
-15z m1104 -6 c-3 -7 -5 -2 -5 12 0 14 2 19 5 13 2 -7 2 -19 0 -25z m-1822 12
c19 -7 19 -8 -5 -18 -25 -9 -45 2 -34 20 6 10 13 9 39 -2z m345 -11 c-11 -8
-7 -9 15 -5 19 4 25 3 17 -2 -25 -17 15 -22 45 -7 28 15 28 15 4 15 -30 0 -25
5 14 14 22 5 26 4 15 -4 -22 -14 5 -13 29 2 14 9 25 9 43 1 21 -10 21 -11 3
-11 -51 -1 -155 -43 -155 -63 0 -6 -4 -7 -10 -4 -5 3 -10 11 -10 16 0 6 4 8 9
4 5 -3 12 -1 15 4 5 8 -23 26 -29 19 -16 -20 -23 -47 -13 -50 8 -3 8 -9 1 -22
-7 -13 -13 -15 -17 -7 -4 6 -2 11 5 11 8 0 8 4 -2 16 -10 13 -10 19 0 36 7 11
10 23 6 26 -3 4 -10 0 -15 -8 -6 -9 -10 -10 -10 -3 0 14 41 45 49 37 3 -3 -1
-10 -9 -15z m-280 5 c0 -8 -19 -13 -24 -6 -3 5 1 9 9 9 8 0 15 -2 15 -3z
m-670 -19 c28 -4 51 -19 46 -31 -5 -14 19 -21 26 -6 2 4 13 -3 26 -14 l23 -22
-44 1 c-34 2 -43 5 -39 16 4 10 1 13 -11 8 -9 -3 -17 -2 -17 3 0 6 8 11 18 11
16 1 16 2 0 6 -10 2 -18 10 -19 16 0 7 -4 4 -8 -6 -6 -17 -8 -16 -19 8 -10 21
-10 25 0 18 7 -4 15 -8 18 -8z m740 -21 c33 -24 50 -43 50 -57 0 -15 3 -18 8
-9 6 8 15 3 31 -19 19 -25 21 -35 13 -53 l-11 -21 2 22 c1 12 -2 21 -8 20 -5
-1 -9 -6 -7 -11 2 -5 -4 -3 -13 4 -13 11 -18 10 -28 -3 -10 -13 -15 -11 -37
16 -20 27 -21 29 -3 14 17 -15 26 -16 41 -8 15 8 21 8 24 -1 3 -7 7 -6 11 5 5
12 1 17 -13 17 -11 0 -20 7 -20 15 0 8 -4 15 -10 15 -5 0 -10 -7 -10 -16 0 -8
-5 -12 -11 -9 -6 4 -8 13 -5 21 3 8 1 14 -3 14 -5 0 -12 -7 -15 -16 -6 -16
-26 -11 -26 7 0 6 4 8 9 4 18 -10 20 11 4 42 -10 22 -20 30 -31 26 -10 -4 -13
-2 -8 5 10 16 10 16 66 -24z m1107 14 c-3 -8 -6 -5 -6 6 -1 11 2 17 5 13 3 -3
4 -12 1 -19z m-1207 8 c0 -2 -7 -7 -16 -10 -8 -3 -12 -2 -9 4 6 10 25 14 25 6z
m714 -11 c3 -8 1 -15 -4 -15 -6 0 -10 7 -10 15 0 8 2 15 4 15 2 0 6 -7 10 -15z
m1061 -40 c7 -62 21 -73 23 -19 1 20 4 39 7 42 8 8 4 -80 -5 -108 -4 -14 -8
-18 -9 -9 -2 30 -26 69 -43 69 -14 0 -18 9 -18 40 0 33 4 40 19 40 15 0 20
-10 26 -55z m-4098 -7 c-2 -13 -4 -5 -4 17 -1 22 1 32 4 23 2 -10 2 -28 0 -40z
m1610 19 c2 -12 4 -27 5 -34 1 -7 5 -10 10 -7 4 3 3 15 -3 27 -9 20 -9 21 4 4
15 -18 12 -57 -3 -57 -5 0 -12 9 -15 20 -4 11 -11 18 -16 15 -5 -4 -9 3 -9 14
0 12 -3 20 -7 20 -19 -3 -33 2 -33 12 0 5 4 7 10 4 5 -3 18 -2 27 4 21 11 26
8 30 -22z m397 -2 c5 -22 4 -26 -4 -15 -5 8 -10 24 -10 34 0 26 6 18 14 -19z
m989 -24 c10 -11 9 -13 -3 -9 -9 3 -16 18 -17 39 -1 24 0 26 4 9 3 -14 10 -31
16 -39z m-1027 24 c-5 -19 -3 -23 9 -19 8 4 15 1 15 -4 0 -6 -13 -10 -29 -10
-28 1 -28 1 -12 29 20 35 25 37 17 4z m374 15 c0 -5 -10 -10 -22 -9 -22 0 -22
1 -3 9 11 5 21 9 23 9 1 1 2 -3 2 -9z m34 -6 c9 -22 8 -24 -9 -24 -8 0 -15 9
-15 20 0 24 15 27 24 4z m206 -4 c0 -13 -5 -18 -15 -14 -12 5 -13 10 -4 20 15
19 19 18 19 -6z m1587 -2 c-3 -8 -6 -5 -6 6 -1 11 2 17 5 13 3 -3 4 -12 1 -19z
m-2354 -4 c9 -4 17 -10 17 -14 0 -5 -13 -3 -30 3 -16 6 -30 15 -30 20 0 5 6 6
13 3 6 -3 20 -9 30 -12z m987 0 c0 -2 -9 -4 -21 -4 -11 0 -18 4 -14 10 5 8 35
3 35 -6z m80 6 c-8 -5 -26 -9 -40 -9 -23 1 -23 2 5 9 43 11 52 11 35 0z m607
-12 c-3 -8 -6 -5 -6 6 -1 11 2 17 5 13 3 -3 4 -12 1 -19z m-3450 -20 c-3 -7
-5 -2 -5 12 0 14 2 19 5 13 2 -7 2 -19 0 -25z m2728 11 c16 -8 15 -8 -8 -4
-21 4 -27 2 -21 -6 4 -8 3 -9 -5 -5 -6 4 -9 12 -6 17 7 11 14 11 40 -2z m523
-13 c0 -19 -3 -22 -13 -13 -9 8 -10 16 -3 25 14 17 16 16 16 -12z m-1110 7
c-10 -2 -26 -2 -35 0 -10 3 -2 5 17 5 19 0 27 -2 18 -5z m709 1 c-3 -3 -12 -4
-19 -1 -8 3 -5 6 6 6 11 1 17 -2 13 -5z m507 -33 c-4 -17 -9 -30 -11 -27 -3 2
-2 19 2 36 9 41 17 33 9 -9z m-808 6 c-1 -12 2 -24 6 -27 4 -3 3 -12 -2 -19
-6 -10 -13 -4 -28 25 l-20 40 22 2 c18 1 23 -3 22 -21z m231 17 c-3 -3 -12 -4
-19 -1 -8 3 -5 6 6 6 11 1 17 -2 13 -5z m-896 -27 c-6 -8 -7 -18 -3 -22 4 -5
-1 -5 -10 -2 -20 7 -35 -9 -16 -16 7 -3 -1 -8 -19 -12 -21 -5 -33 -14 -36 -29
-4 -18 -4 -18 -5 4 -1 14 3 32 8 40 6 10 10 11 10 3 0 -7 8 -13 18 -13 13 0
14 2 4 9 -10 6 -7 13 15 29 32 24 51 29 34 9z m394 4 c3 -5 1 -12 -5 -16 -5
-3 -10 1 -10 9 0 18 6 21 15 7z m388 -16 c-17 -23 -41 -36 -28 -15 3 6 1 10
-4 10 -6 0 -11 -4 -11 -10 0 -5 -5 -10 -12 -10 -6 0 -3 9 7 20 14 15 20 17 26
8 6 -9 10 -8 15 5 3 9 10 17 16 17 5 0 1 -11 -9 -25z m-423 5 c0 -5 -4 -10
-10 -10 -5 0 -10 5 -10 10 0 6 5 10 10 10 6 0 10 -4 10 -10z m977 -12 c-3 -8
-6 -5 -6 6 -1 11 2 17 5 13 3 -3 4 -12 1 -19z m-898 -16 c16 -22 17 -29 5 -29
-7 0 -12 2 -10 5 7 6 -18 31 -26 25 -4 -2 -5 3 -2 11 8 21 9 21 33 -12z m1041
-9 c-11 -17 -11 -17 -6 0 3 10 6 24 7 30 0 9 2 9 5 0 3 -7 0 -20 -6 -30z
m-676 1 c3 -9 6 -33 6 -55 0 -38 -1 -39 -34 -39 -33 0 -34 1 -37 43 l-4 44 35
-2 c19 -2 29 -1 23 2 -15 5 -18 23 -4 23 5 0 12 -7 15 -16z m-4144 2 c0 -2 -9
-6 -20 -9 -11 -3 -18 -1 -14 4 5 9 34 13 34 5z m3725 -6 c3 -5 -1 -10 -9 -10
-9 0 -16 5 -16 10 0 6 4 10 9 10 6 0 13 -4 16 -10z m1798 -85 c4 -66 3 -77 -3
-40 -9 52 -13 141 -6 134 2 -2 6 -44 9 -94z m-4006 63 c-3 -8 -6 -5 -6 6 -1
11 2 17 5 13 3 -3 4 -12 1 -19z m2543 3 c0 -10 -7 -21 -15 -24 -12 -5 -12 -2
-3 18 13 30 18 31 18 6z m566 -31 c15 0 16 -2 5 -9 -15 -10 -77 24 -86 47 -2
7 10 1 29 -13 18 -14 41 -25 52 -25z m74 46 c0 -3 -4 -8 -10 -11 -5 -3 -10 -1
-10 4 0 6 5 11 10 11 6 0 10 -2 10 -4z m-1540 -10 c0 -2 -7 -7 -16 -10 -8 -3
-12 -2 -9 4 6 10 25 14 25 6z m639 -47 c11 -19 9 -18 -18 2 -36 26 -37 29 -13
22 10 -2 24 -13 31 -24z m19 6 c-3 -3 -9 2 -12 12 -6 14 -5 15 5 6 7 -7 10
-15 7 -18z m82 0 c0 -8 -4 -15 -10 -15 -5 0 -10 7 -10 15 0 8 5 15 10 15 6 0
10 -7 10 -15z m30 6 c0 -6 -4 -13 -10 -16 -5 -3 -10 1 -10 9 0 9 5 16 10 16 6
0 10 -4 10 -9z m-3800 -25 c0 -2 -9 -2 -20 1 -11 3 -20 9 -20 15 0 5 9 4 20
-2 11 -6 20 -12 20 -14z m4446 13 c3 -6 1 -15 -6 -19 -9 -5 -9 -9 -1 -14 16
-10 13 -36 -4 -36 -12 0 -15 10 -13 40 3 40 11 50 24 29z m-508 -35 c-4 -3
-12 5 -18 18 -12 22 -12 22 6 6 10 -10 15 -20 12 -24z m613 29 c0 -5 2 -24 5
-43 l4 -35 -19 25 c-14 18 -16 27 -8 32 9 6 9 8 -1 8 -7 0 -10 5 -7 10 7 12
25 13 26 3z m-3171 -13 c0 -5 -4 -10 -10 -10 -5 0 -10 5 -10 10 0 6 5 10 10
10 6 0 10 -4 10 -10z m2450 -10 c0 -5 -2 -10 -4 -10 -3 0 -8 5 -11 10 -3 6 -1
10 4 10 6 0 11 -4 11 -10z m680 1 c0 -4 -11 -6 -25 -3 -14 2 -25 6 -25 8 0 2
11 4 25 4 14 0 25 -4 25 -9z m-3113 -33 c-3 -7 -5 -2 -5 12 0 14 2 19 5 13 2
-7 2 -19 0 -25z m2394 8 c1 5 5 -2 9 -16 12 -37 11 -113 -1 -130 -8 -11 -9 1
-6 46 5 59 -6 100 -22 89 -5 -2 -11 5 -14 16 -5 20 -5 20 14 3 10 -9 19 -13
20 -8z m1219 14 c-8 -5 -19 -10 -25 -10 -5 0 -3 5 5 10 8 5 20 10 25 10 6 0 3
-5 -5 -10z m60 0 c0 -5 -2 -10 -4 -10 -3 0 -8 5 -11 10 -3 6 -1 10 4 10 6 0
11 -4 11 -10z m43 -4 c6 -16 -1 -26 -17 -26 -6 0 -4 5 4 10 10 6 11 10 3 10
-7 0 -13 5 -13 10 0 15 17 12 23 -4z m107 4 c0 -5 -2 -10 -4 -10 -3 0 -8 5
-11 10 -3 6 -1 10 4 10 6 0 11 -4 11 -10z m-1376 -25 c3 -8 1 -15 -4 -15 -6 0
-10 7 -10 15 0 8 2 15 4 15 2 0 6 -7 10 -15z m76 -29 c0 -26 -6 -18 -14 19 -5
22 -4 26 4 15 5 -8 10 -24 10 -34z m1134 35 c15 -6 11 -9 -20 -19 -40 -12 -67
-45 -84 -100 -6 -19 -9 -22 -9 -8 -1 29 46 104 70 111 17 6 19 9 8 16 -12 7
-11 9 1 8 8 0 23 -4 34 -8z m96 2 c-1 -18 -18 -35 -24 -24 -4 6 -2 11 4 11 6
0 8 5 5 10 -3 6 -1 10 4 10 6 0 11 -3 11 -7z m-1434 -40 c-11 -11 -17 4 -9 23
7 18 8 18 11 1 2 -10 1 -21 -2 -24z m818 5 c11 -21 13 -35 6 -42 -7 -7 -10 -4
-10 8 0 11 -7 24 -17 31 -9 7 -13 17 -9 23 10 17 13 15 30 -20z m-597 -30 c-3
-7 -5 -2 -5 12 0 14 2 19 5 13 2 -7 2 -19 0 -25z m1278 22 c3 -5 3 -10 -2 -10
-4 0 -9 -17 -10 -37 -1 -26 1 -33 7 -23 9 13 10 13 9 0 0 -8 -4 -24 -9 -35 -9
-20 -9 -20 -9 0 -1 11 -10 38 -21 60 -21 40 -21 40 -1 15 16 -20 21 -21 21 -8
0 9 -4 20 -10 23 -5 3 -10 10 -10 16 0 12 27 12 35 -1z m-480 -9 c3 -5 1 -12
-5 -16 -5 -3 -10 1 -10 9 0 18 6 21 15 7z m-1010 -22 c12 -37 8 -104 -7 -133
l-15 -28 -1 38 c0 29 2 34 8 19 5 -13 8 1 8 43 0 34 -4 62 -9 62 -5 0 -9 5 -9
10 0 18 19 10 25 -11z m1005 -66 c0 -17 4 -42 9 -56 6 -16 6 -24 -2 -24 -11 0
-14 11 -20 84 -1 17 -5 35 -9 39 -5 4 -8 17 -7 28 1 34 28 -33 29 -71z m189
-12 l-8 -26 2 25 c1 14 -1 30 -5 35 -3 6 -3 24 0 40 6 30 6 30 13 -9 3 -22 3
-51 -2 -65z m31 90 c0 -6 -4 -13 -10 -16 -5 -3 -10 1 -10 9 0 9 5 16 10 16 6
0 10 -4 10 -9z m-1730 -10 c0 -5 -9 -7 -20 -4 -11 3 -20 7 -20 9 0 2 9 4 20 4
11 0 20 -4 20 -9z m617 -43 c-2 -13 -4 -5 -4 17 -1 22 1 32 4 23 2 -10 2 -28
0 -40z m80 20 c-3 -8 -6 -5 -6 6 -1 11 2 17 5 13 3 -3 4 -12 1 -19z m602 -23
l0 -20 -9 20 c-5 11 -9 27 -9 35 -1 13 0 13 9 0 5 -8 9 -24 9 -35z m598 19
c12 -19 12 -22 -1 -27 -10 -4 -13 -1 -9 9 6 17 -13 19 -21 2 -3 -7 -3 -3 0 10
4 16 1 22 -11 22 -9 0 -13 -4 -10 -10 3 -5 0 -7 -9 -4 -9 3 -19 -3 -26 -16 -6
-12 -14 -19 -18 -16 -3 3 5 18 18 31 29 31 66 30 87 -1z m-540 -15 c1 -14 0
-17 -3 -6 -3 9 -10 17 -15 17 -5 0 -9 5 -9 11 0 22 25 2 27 -22z m80 9 c-3 -8
-6 -5 -6 6 -1 11 2 17 5 13 3 -3 4 -12 1 -19z m-3270 -20 c-3 -8 -6 -5 -6 6
-1 11 2 17 5 13 3 -3 4 -12 1 -19z m2482 -50 c0 -43 -3 -65 -8 -53 -6 18 -7
43 -2 108 0 9 3 17 6 17 3 0 5 -33 4 -72z m61 22 c-5 -22 -8 -27 -9 -13 -1 21
9 56 14 51 2 -2 0 -19 -5 -38z m697 8 c-3 -8 -6 -5 -6 6 -1 11 2 17 5 13 3 -3
4 -12 1 -19z m-1628 -5 c-17 -22 -43 -43 -47 -38 -5 4 41 53 52 54 5 1 2 -7
-5 -16z m2411 7 c0 -5 -2 -10 -4 -10 -3 0 -8 5 -11 10 -3 6 -1 10 4 10 6 0 11
-4 11 -10z m-1552 -186 c-2 -32 -7 -50 -14 -47 -8 3 -8 15 0 44 8 31 7 53 -5
98 -8 32 -13 64 -10 72 8 24 31 -113 29 -167z m-3508 156 c0 -5 -2 -10 -4 -10
-3 0 -8 5 -11 10 -3 6 -1 10 4 10 6 0 11 -4 11 -10z m3462 -20 c-2 -16 -6 -30
-8 -30 -2 0 -4 14 -4 30 0 17 4 30 8 30 5 0 7 -13 4 -30z m1205 -17 c-3 -10
-5 -2 -5 17 0 19 2 27 5 18 2 -10 2 -26 0 -35z m370 25 c-3 -8 -6 -5 -6 6 -1
11 2 17 5 13 3 -3 4 -12 1 -19z m-800 -20 c-3 -8 -6 -5 -6 6 -1 11 2 17 5 13
3 -3 4 -12 1 -19z m339 -13 c-9 -9 -16 -31 -16 -48 0 -24 3 -28 10 -17 5 8 10
24 10 35 1 19 1 19 11 2 6 -10 8 -31 4 -47 -6 -27 -8 -28 -21 -15 -21 20 -27
19 -19 -5 3 -11 2 -27 -3 -36 -7 -13 -10 -10 -16 17 -3 18 -2 35 3 39 6 3 12
24 13 47 2 23 6 39 11 36 4 -2 7 4 7 13 0 14 3 15 11 7 9 -9 8 -16 -5 -28z
m286 3 c-8 -8 -9 -4 -5 13 4 13 8 18 11 10 2 -7 -1 -18 -6 -23z m-1467 -33
l-14 -50 0 48 c-1 30 3 46 9 42 6 -3 10 -1 10 6 0 7 2 10 4 8 2 -2 -2 -26 -9
-54z m906 32 c-10 -9 -11 -8 -5 6 3 10 9 15 12 12 3 -3 0 -11 -7 -18z m386 1
c-3 -8 -6 -5 -6 6 -1 11 2 17 5 13 3 -3 4 -12 1 -19z m-3603 -23 l17 -30 -20
24 c-12 13 -21 28 -21 34 0 12 0 11 24 -28z m1531 14 c-4 -5 -12 -9 -18 -8 -9
0 -8 2 1 6 6 2 9 10 6 15 -4 7 -2 8 5 4 6 -4 9 -12 6 -17z m82 3 c-12 -3 -15
-7 -8 -15 6 -8 3 -20 -10 -36 -27 -33 -33 -21 -14 27 13 31 21 39 33 34 15 -6
15 -7 -1 -10z m886 3 c-3 -9 -8 -14 -10 -11 -3 3 -2 9 2 15 9 16 15 13 8 -4z
m1457 -1 c0 -8 -5 -12 -10 -9 -6 4 -8 11 -5 16 9 14 15 11 15 -7z m-2263 -16
c-3 -8 -6 -5 -6 6 -1 11 2 17 5 13 3 -3 4 -12 1 -19z m1673 13 c0 -4 -5 -12
-11 -18 -14 -14 -2 -36 14 -27 8 5 8 3 0 -6 -24 -26 -38 -19 -38 19 0 28 4 37
17 38 10 1 18 -2 18 -6z m17 -23 c-3 -8 -6 -5 -6 6 -1 11 2 17 5 13 3 -3 4
-12 1 -19z m310 8 c-3 -7 0 -19 6 -25 8 -8 8 -11 0 -11 -13 0 -25 28 -17 41 8
14 17 11 11 -5z m233 4 c0 -5 -4 -10 -10 -10 -5 0 -10 5 -10 10 0 6 5 10 10
10 6 0 10 -4 10 -10z m-2462 -12 c9 -9 12 -9 12 0 0 9 5 10 17 3 12 -6 24 -6
38 1 18 10 19 10 6 -6 -10 -12 -22 -15 -39 -11 -23 6 -23 6 -5 -19 19 -26 33
-33 33 -16 0 6 7 10 15 10 19 0 19 -14 0 -30 -13 -11 -23 -6 -61 33 -25 26
-41 47 -37 47 5 0 14 -5 21 -12z m933 -33 c7 17 8 17 6 2 -4 -31 -22 -24 -24
11 l-3 32 6 -32 c6 -29 7 -31 15 -13z m766 5 c4 -8 7 -18 7 -22 1 -3 15 -22
31 -41 48 -54 61 -71 48 -63 -7 4 -13 2 -13 -3 0 -6 7 -11 16 -11 8 0 12 -5 9
-10 -9 -15 -37 9 -31 26 6 17 -18 36 -36 29 -8 -3 -23 3 -33 15 -10 11 -13 20
-7 20 6 0 15 -8 21 -17 5 -10 13 -14 17 -10 4 4 -4 20 -17 35 -16 16 -26 40
-27 62 -1 19 1 28 4 20 3 -8 8 -22 11 -30z m153 25 c0 -8 -2 -15 -4 -15 -2 0
-6 7 -10 15 -3 8 -1 15 4 15 6 0 10 -7 10 -15z m297 -7 c-3 -8 -6 -5 -6 6 -1
11 2 17 5 13 3 -3 4 -12 1 -19z m-1867 -20 c0 -12 -6 -9 -26 13 -19 22 -19 22
4 8 12 -8 22 -17 22 -21z m2160 23 c0 -6 -4 -13 -10 -16 -5 -3 -10 1 -10 9 0
9 5 16 10 16 6 0 10 -4 10 -9z m-1623 -33 c-3 -7 -5 -2 -5 12 0 14 2 19 5 13
2 -7 2 -19 0 -25z m40 0 c-3 -7 -5 -2 -5 12 0 14 2 19 5 13 2 -7 2 -19 0 -25z
m1463 11 c0 -6 -4 -7 -10 -4 -5 3 -10 11 -10 16 0 6 5 7 10 4 6 -3 10 -11 10
-16z m131 -6 c-12 -20 -14 -14 -5 12 4 9 9 14 11 11 3 -2 0 -13 -6 -23z
m-4042 -25 c1 -5 -3 -8 -7 -8 -4 0 -8 12 -9 28 -1 23 -1 24 7 7 5 -11 9 -23 9
-27z m1841 27 c10 -12 10 -15 -3 -15 -8 0 -17 7 -21 15 -3 8 -2 15 3 15 5 0
14 -7 21 -15z m787 -7 c-3 -8 -6 -5 -6 6 -1 11 2 17 5 13 3 -3 4 -12 1 -19z
m1116 -11 c3 5 20 10 38 11 18 1 31 0 28 -3 -3 -3 -18 -6 -33 -7 -16 -2 -31
-8 -33 -16 -4 -10 -10 -9 -24 4 -11 9 -19 22 -19 27 0 6 9 2 19 -7 10 -10 21
-13 24 -9z m-373 3 c0 -5 -2 -10 -4 -10 -3 0 -8 5 -11 10 -3 6 -1 10 4 10 6 0
11 -4 11 -10z m29 -11 c-10 -6 -10 -9 -2 -9 7 0 18 -10 24 -22 12 -22 11 -22
-8 -5 -11 9 -22 14 -26 11 -3 -3 -4 2 -2 13 2 10 4 22 4 26 1 5 6 5 12 1 8 -4
7 -9 -2 -15z m502 -9 c5 0 9 -8 9 -17 -1 -17 -1 -17 -14 -1 -7 10 -16 15 -19
12 -8 -9 26 -64 41 -64 6 0 12 -5 12 -11 0 -5 5 -7 10 -4 7 5 8 11 1 19 -6 7
-6 17 -1 26 8 12 10 10 10 -8 0 -15 4 -21 11 -16 7 4 1 -7 -12 -25 -25 -34
-35 -40 -25 -16 3 8 1 15 -5 15 -5 0 -8 -12 -7 -27 3 -24 0 -28 -23 -27 -20 1
-25 -3 -22 -16 5 -18 -23 -47 -35 -36 -4 4 1 12 11 17 9 6 15 15 11 21 -4 6
-9 5 -15 -3 -8 -14 -8 -13 -10 47 0 19 -6 21 -54 20 -29 0 -51 -4 -49 -8 3 -4
-1 -8 -9 -8 -10 0 -13 7 -10 18 3 13 14 19 34 19 19 0 25 -3 17 -9 -9 -5 -6
-8 10 -8 12 0 22 5 22 11 0 7 9 9 21 6 14 -4 19 -2 16 7 -4 10 5 12 31 9 21
-2 32 0 25 4 -15 10 -17 32 -7 63 6 20 9 21 12 8 2 -10 8 -18 13 -18z m106
-17 c-11 -11 -17 -13 -17 -5 0 7 5 12 10 12 6 0 10 5 10 11 0 5 -4 8 -8 5 -5
-3 -9 2 -9 10 0 13 2 13 16 -1 14 -13 14 -17 -2 -32z m-67 33 c0 -11 -19 -15
-25 -6 -3 5 1 10 9 10 9 0 16 -2 16 -4z m-3870 -10 c0 -2 -7 -7 -16 -10 -8 -3
-12 -2 -9 4 6 10 25 14 25 6z m3614 -48 c6 -4 7 -10 3 -15 -10 -9 -46 36 -47
57 0 9 7 5 17 -10 9 -14 21 -28 27 -32z m116 48 c0 -3 -4 -8 -10 -11 -5 -3
-10 -1 -10 4 0 6 5 11 10 11 6 0 10 -2 10 -4z m-2362 -31 c-3 -3 -9 2 -12 12
-6 14 -5 15 5 6 7 -7 10 -15 7 -18z m62 3 c0 -6 -6 -5 -15 2 -8 7 -15 14 -15
16 0 2 7 1 15 -2 8 -4 15 -11 15 -16z m917 -25 c-3 -10 -5 -2 -5 17 0 19 2 27
5 18 2 -10 2 -26 0 -35z m1113 0 c0 -7 -4 -13 -10 -13 -5 0 -10 12 -10 28 0
21 -2 24 -10 12 -5 -8 -10 -10 -10 -4 0 6 3 14 7 18 9 8 33 -22 33 -41z
m-3074 22 c13 -12 13 -15 2 -15 -8 0 -19 5 -26 12 -8 8 -15 8 -26 -1 -9 -7
-17 -8 -20 -2 -6 9 12 17 42 20 7 0 20 -6 28 -14z m3624 7 c0 -5 -7 -9 -15 -9
-8 0 -12 4 -9 9 3 4 9 8 15 8 5 0 9 -4 9 -8z m-4064 -14 c-9 -5 -23 -5 -32 0
-12 6 -7 9 16 9 23 0 28 -3 16 -9z m273 -7 c7 -5 9 -11 5 -14 -5 -3 -15 1 -22
9 -14 16 -5 18 17 5z m1073 0 c-8 -4 -12 -12 -10 -17 1 -5 -7 -10 -19 -12 -13
-2 -23 2 -23 8 0 7 8 9 20 5 11 -4 20 -3 19 2 -3 16 1 23 14 23 9 0 9 -2 -1
-9z m1086 -73 c-17 -10 -30 1 -24 19 5 12 -1 14 -34 8 -33 -6 -40 -4 -40 10 0
14 7 16 40 10 37 -6 40 -5 40 17 1 17 5 13 15 -17 11 -29 11 -41 3 -47z m1168
55 c-10 -10 -19 5 -10 18 6 11 8 11 12 0 2 -7 1 -15 -2 -18z m-3361 7 c3 -5 1
-10 -4 -10 -6 0 -11 5 -11 10 0 6 2 10 4 10 3 0 8 -4 11 -10z m210 -5 c23 -10
25 -13 10 -14 -11 0 -31 6 -45 14 -32 18 -5 19 35 0z m3185 5 c0 -5 -5 -10
-11 -10 -5 0 -7 5 -4 10 3 6 8 10 11 10 2 0 4 -4 4 -10z m-3590 -14 c-4 -4
-16 -4 -26 2 -16 9 -14 10 8 9 15 -1 23 -6 18 -11z m3390 9 c0 -7 -30 -13 -34
-7 -3 4 4 9 15 9 10 1 19 0 19 -2z m-2285 -15 c-3 -5 -11 -10 -16 -10 -6 0 -7
5 -4 10 3 6 11 10 16 10 6 0 7 -4 4 -10z m305 0 c-8 -5 -19 -10 -25 -10 -5 0
-3 5 5 10 8 5 20 10 25 10 6 0 3 -5 -5 -10z m21 -10 c-13 -11 -28 -20 -35 -20
-6 0 3 9 19 19 39 25 46 25 16 1z m1031 -9 c7 11 11 11 15 1 2 -6 9 -10 14 -6
5 3 9 0 9 -6 0 -6 -12 -10 -27 -8 -20 2 -28 9 -29 23 -1 18 -1 18 3 1 4 -16 7
-17 15 -5z m1031 22 c-17 -6 7 -32 23 -26 7 3 11 -6 10 -21 l-1 -26 -29 29
c-27 27 -29 52 -3 50 9 0 9 -2 0 -6z m-3389 -11 c-6 -4 -10 -15 -8 -25 1 -9
-2 -15 -7 -11 -5 3 -7 10 -4 15 4 5 -4 9 -17 10 -22 0 -22 1 -3 9 25 11 54 13
39 2z m191 -2 c3 -6 -1 -7 -9 -4 -18 7 -21 14 -7 14 6 0 13 -4 16 -10z m1405
1 c0 -6 -4 -13 -10 -16 -5 -3 -10 1 -10 9 0 9 5 16 10 16 6 0 10 -4 10 -9z
m1710 5 c0 -2 -7 -7 -16 -10 -8 -3 -12 -2 -9 4 6 10 25 14 25 6z m-2207 -12
c-7 -3 -9 -12 -6 -20 3 -9 -1 -14 -11 -14 -14 0 -15 4 -6 20 6 11 16 20 23 19
9 0 9 -2 0 -5z m168 -11 c13 -15 12 -15 -11 -3 -34 17 -36 20 -18 20 9 0 22
-7 29 -17z m359 7 c0 -5 -4 -10 -10 -10 -5 0 -10 5 -10 10 0 6 5 10 10 10 6 0
10 -4 10 -10z m827 -37 c-3 -10 -5 -2 -5 17 0 19 2 27 5 18 2 -10 2 -26 0 -35z
m-3082 19 c-3 -3 -11 0 -18 7 -9 10 -8 11 6 5 10 -3 15 -9 12 -12z m1822 12
c-3 -3 -12 -4 -19 -1 -8 3 -5 6 6 6 11 1 17 -2 13 -5z m2716 -9 c-3 -9 -8 -14
-10 -11 -3 3 -2 9 2 15 9 16 15 13 8 -4z m-2693 -5 c-8 -5 -19 -10 -25 -10 -5
0 -3 5 5 10 8 5 20 10 25 10 6 0 3 -5 -5 -10z m233 -21 c27 -31 37 -56 17 -44
-5 3 -10 14 -10 23 0 20 -16 5 -24 -23 -3 -11 -4 -5 -2 13 1 17 -1 32 -5 32
-4 0 -9 7 -13 15 -9 24 8 17 37 -16z m-1385 3 c2 -7 -1 -12 -8 -12 -6 0 -9 4
-6 9 4 5 1 12 -4 14 -6 3 -5 4 2 3 6 -1 14 -8 16 -14z m1079 12 c-3 -3 -12 -4
-19 -1 -8 3 -5 6 6 6 11 1 17 -2 13 -5z m253 -3 c0 -6 -4 -12 -8 -15 -5 -3 -9
1 -9 9 0 8 4 15 9 15 4 0 8 -4 8 -9z m850 5 c0 -3 -4 -8 -10 -11 -5 -3 -10 -1
-10 4 0 6 5 11 10 11 6 0 10 -2 10 -4z m1090 -6 c-8 -5 -19 -10 -25 -10 -5 0
-3 5 5 10 8 5 20 10 25 10 6 0 3 -5 -5 -10z m305 -1 c4 -6 4 -13 0 -17 -3 -3
-10 0 -15 8 -7 12 -12 12 -22 2 -17 -17 -29 -15 -22 3 7 17 50 20 59 4z
m-2405 -3 c0 -2 -7 -7 -16 -10 -8 -3 -12 -2 -9 4 6 10 25 14 25 6z m2005 -6
c-3 -5 -12 -10 -18 -10 -7 0 -6 4 3 10 19 12 23 12 15 0z m-2165 -12 c0 -10
-31 -10 -48 0 -8 6 -2 9 18 9 16 0 30 -4 30 -9z m115 2 c3 -5 2 -10 -4 -10 -5
0 -13 5 -16 10 -3 6 -2 10 4 10 5 0 13 -4 16 -10z m165 6 c0 -3 -4 -8 -10 -11
-5 -3 -10 -1 -10 4 0 6 5 11 10 11 6 0 10 -2 10 -4z m2197 -2 c-3 -3 -12 -4
-19 -1 -8 3 -5 6 6 6 11 1 17 -2 13 -5z m256 -9 c-3 -9 -8 -14 -10 -11 -3 3
-2 9 2 15 9 16 15 13 8 -4z m-2485 -32 c-18 -22 -27 -15 -15 11 8 16 14 20 19
13 4 -6 2 -17 -4 -24z m772 17 c11 0 11 -3 -4 -11 -13 -8 -20 -8 -26 0 -5 8
-12 4 -24 -13 -9 -14 -25 -26 -36 -26 -25 0 -25 9 -2 26 16 13 16 13 0 14 -10
0 -18 6 -18 13 0 11 11 12 48 6 26 -4 54 -8 62 -9z m427 14 c-3 -3 -12 -4 -19
-1 -8 3 -5 6 6 6 11 1 17 -2 13 -5z m68 -3 c-19 -8 -19 -8 2 -19 29 -16 31
-15 29 6 -1 13 8 18 40 20 l42 3 3 -44 c7 -76 3 -81 -39 -55 -20 12 -39 25
-42 28 -3 4 -22 18 -43 32 -32 22 -36 27 -20 31 30 8 50 6 28 -2z m749 -3 c-5
-7 -2 -9 8 -5 15 5 35 -10 52 -40 5 -9 2 -11 -8 -7 -9 3 -14 10 -11 14 6 10
-20 32 -28 24 -9 -9 -28 6 -22 17 4 5 8 9 11 9 3 0 2 -5 -2 -12z m160 -57 c-5
-5 -64 50 -64 59 0 4 15 -7 34 -24 18 -17 32 -33 30 -35z m376 65 c0 -2 -8
-10 -17 -17 -16 -13 -17 -12 -4 4 13 16 21 21 21 13z m-3711 -17 c-11 -7 -10
-9 3 -9 9 0 20 5 23 10 3 6 12 10 18 10 8 0 7 -3 -2 -9 -11 -7 -10 -10 5 -14
15 -3 -60 -2 -89 2 -20 3 5 19 29 19 18 0 22 -3 13 -9z m985 -4 c-22 -17 -34
-19 -34 -6 0 5 8 12 18 14 32 9 36 7 16 -8z m-1668 -22 c-7 -7 -26 7 -26 19 0
6 6 6 15 -2 9 -7 13 -15 11 -17z m1457 17 c8 0 8 -3 0 -11 -9 -9 -16 -7 -30 7
-17 17 -17 18 0 11 10 -4 24 -7 30 -7z m349 -2 c-20 -20 5 -39 35 -27 23 8 24
8 13 -6 -9 -11 -27 -14 -66 -11 -32 2 -63 -2 -78 -10 -39 -20 -31 -8 14 22 22
15 43 24 46 21 4 -3 13 0 21 8 8 8 17 15 21 15 3 0 1 -5 -6 -12z m378 -9 c0
-5 -4 -9 -10 -9 -5 0 -10 7 -10 16 0 8 5 12 10 9 6 -3 10 -10 10 -16z m1625
-8 c11 -14 14 -21 7 -17 -7 4 -12 4 -11 -1 1 -4 1 -14 0 -22 -2 -27 -15 0 -17
35 0 19 0 33 0 32 1 -2 10 -14 21 -27z m-3255 -4 c9 -4 5 -6 -10 -5 -48 2 -71
-2 -65 -12 4 -6 9 -8 13 -6 4 2 7 -28 8 -68 1 -73 -12 -50 -15 27 0 20 -5 37
-10 37 -6 0 -8 -31 -6 -72 l4 -73 -11 53 c-14 67 -2 128 25 124 9 -2 17 2 17
8 0 7 6 8 18 2 9 -5 24 -12 32 -15z m847 8 c0 -8 -6 -16 -13 -19 -10 -4 -12 8
-5 32 3 9 18 -1 18 -13z m210 9 c-3 -3 -12 -4 -19 -1 -8 3 -5 6 6 6 11 1 17
-2 13 -5z m428 -24 c10 -11 14 -20 9 -20 -5 0 -17 9 -27 20 -9 11 -13 20 -8
20 4 0 16 -9 26 -20z m-989 -5 c25 -19 14 -19 -22 0 -16 8 -22 15 -13 15 8 0
24 -7 35 -15z m938 -13 c-29 -4 -39 2 -30 16 4 7 15 6 31 -1 l25 -12 -26 -3z
m-1400 7 c-4 -8 1 -9 16 -4 15 5 20 4 16 -4 -4 -6 -14 -11 -22 -11 -19 0 -18
-20 4 -36 16 -13 16 -13 0 -14 -10 0 -18 -4 -18 -10 0 -5 -9 -10 -19 -10 -15
0 -20 9 -23 40 -3 33 0 40 14 40 9 0 20 5 23 10 3 6 8 10 11 10 3 0 2 -5 -2
-11z m730 2 c3 -5 -1 -11 -9 -15 -8 -3 -17 0 -21 6 -4 7 -3 8 4 4 7 -4 12 -2
12 3 0 13 7 14 14 2z m860 -6 c3 -8 1 -15 -4 -15 -6 0 -10 7 -10 15 0 8 2 15
4 15 2 0 6 -7 10 -15z m-749 -5 c-3 -5 -14 -10 -23 -10 -15 0 -15 2 -2 10 20
13 33 13 25 0z m2825 -5 c-7 -8 -17 -15 -23 -15 -6 0 -2 7 9 15 25 19 30 19
14 0z m70 11 c0 -2 -8 -10 -17 -17 -16 -13 -17 -12 -4 4 13 16 21 21 21 13z
m-1863 -17 c-14 -8 -22 -8 -30 0 -8 8 -3 11 19 11 25 -1 27 -2 11 -11z m1410
-32 c18 -23 28 -43 23 -45 -6 -2 -10 -8 -10 -14 0 -6 7 -8 15 -5 8 4 17 1 21
-5 4 -6 3 -8 -4 -4 -6 3 -20 -6 -31 -20 -21 -26 -29 -22 -12 5 10 16 -24 100
-48 118 -14 11 -14 12 -1 12 8 0 29 -19 47 -42z m87 21 c-3 -5 -12 -4 -20 3
-19 16 -18 18 6 12 11 -3 17 -9 14 -15z m166 12 c-18 -12 -30 -13 -30 -2 0 4
10 9 22 9 18 2 20 0 8 -7z m25 -10 c-10 -11 -22 -20 -28 -20 -5 0 1 9 14 20
31 25 37 25 14 0z m-3418 -19 c21 -6 20 -7 -12 -17 -19 -6 -35 -7 -35 -3 0 5
8 9 18 10 11 0 7 4 -10 11 -16 5 -28 14 -28 19 0 6 10 5 22 -2 12 -6 32 -15
45 -18z m740 23 c-3 -3 -12 -4 -19 -1 -8 3 -5 6 6 6 11 1 17 -2 13 -5z m1817
0 c24 -9 21 -60 -4 -67 -11 -3 -23 -1 -26 4 -3 5 4 9 15 9 27 0 28 30 1 37
-11 3 -17 9 -14 14 6 11 8 11 28 3z m816 -26 c0 -12 -13 -9 -32 6 -26 19 -22
26 7 13 14 -7 25 -15 25 -19z m-3230 7 c14 -8 21 -14 15 -14 -5 0 -21 6 -35
14 -14 8 -20 14 -15 14 6 0 21 -6 35 -14z m795 6 c3 -5 -5 -17 -17 -25 -32
-23 -45 -20 -17 4 13 10 19 19 14 20 -6 0 -15 -4 -21 -10 -5 -5 -27 -16 -49
-25 -36 -14 -37 -15 -9 -11 28 4 31 2 27 -14 -3 -11 -8 -19 -12 -18 -3 1 -19
-4 -34 -10 -15 -7 -40 -14 -55 -17 -22 -4 -21 -2 10 13 27 14 34 22 28 32 -7
12 4 21 48 42 63 29 78 32 87 19z m-200 -10 c-6 -5 -23 -12 -40 -15 -28 -6
-28 -5 5 8 43 18 46 18 35 7z m229 -15 c-3 -9 -17 -19 -30 -22 -13 -3 -24 -8
-24 -11 0 -11 30 -33 44 -33 19 0 21 -26 4 -33 -7 -3 -3 -6 10 -6 29 -1 64
-31 37 -31 -9 0 -29 8 -43 18 -15 10 -34 18 -42 17 -20 -1 -30 14 -30 45 0 19
9 30 35 44 19 11 35 24 35 29 0 6 2 8 5 5 3 -3 3 -13 -1 -22z m756 0 c-14 -12
-27 -18 -29 -13 -4 11 26 37 43 37 6 0 -1 -11 -14 -24z m1380 15 c0 -5 -11
-11 -25 -13 -26 -5 -35 6 -12 15 20 9 37 8 37 -2z m516 -20 c0 -11 -4 -17 -9
-14 -4 2 -14 0 -21 -6 -15 -12 -10 -61 6 -61 6 0 8 11 6 25 -3 14 -1 25 3 25
15 0 10 -48 -6 -63 -11 -11 -13 -29 -10 -64 l4 -48 -9 45 c-5 25 -7 53 -4 62
10 32 -26 11 -39 -22 -4 -12 -6 -12 -6 2 -1 9 6 23 14 32 8 8 15 19 15 25 0 6
-7 8 -15 5 -8 -4 -15 -1 -15 5 0 6 6 11 13 11 7 0 26 14 42 30 16 17 29 30 30
30 0 0 1 -9 1 -19z m-3565 -14 c-7 -7 -17 -7 -33 1 l-23 12 24 -6 c16 -4 21
-3 17 5 -5 7 -1 9 9 5 11 -5 13 -10 6 -17z m174 13 c7 -12 -2 -12 -30 0 -19 8
-19 9 2 9 12 1 25 -3 28 -9z m1195 -4 c0 -2 -7 -6 -15 -10 -8 -3 -15 -1 -15 4
0 6 7 10 15 10 8 0 15 -2 15 -4z m1690 -6 c0 -5 -5 -10 -11 -10 -5 0 -7 5 -4
10 3 6 8 10 11 10 2 0 4 -4 4 -10z m204 4 c16 -6 12 -24 -5 -24 -6 0 -8 4 -5
9 4 5 0 12 -6 14 -7 3 -10 6 -6 6 3 1 13 -2 22 -5z m-3381 -11 c-7 -2 -19 -2
-25 0 -7 3 -2 5 12 5 14 0 19 -2 13 -5z m170 -18 c-3 -9 -8 -14 -10 -11 -3 3
-2 9 2 15 9 16 15 13 8 -4z m218 -2 c5 -5 0 -9 -11 -9 -11 0 -20 4 -20 7 0 4
-10 10 -22 12 -13 2 -8 3 11 1 19 -2 38 -7 42 -11z m132 10 c-7 -2 -19 -2 -25
0 -7 3 -2 5 12 5 14 0 19 -2 13 -5z m1227 3 c0 -2 -7 -9 -15 -16 -12 -10 -15
-10 -15 4 0 9 7 16 15 16 8 0 15 -2 15 -4z m-915 -16 c-3 -5 -15 -10 -26 -10
-11 0 -18 -3 -16 -7 3 -5 -6 -9 -20 -9 -31 -2 -24 4 24 21 47 17 45 17 38 5z
m1799 -6 c9 -24 7 -28 -9 -14 -17 14 -20 30 -6 30 5 0 12 -7 15 -16z m-2381
-10 c26 -9 47 -20 47 -25 0 -13 -3 -12 -57 16 -56 29 -54 31 10 9z m256 12
c-11 -9 -90 -16 -84 -6 3 5 25 10 47 10 23 0 39 -2 37 -4z m1199 -19 c5 -24
-15 -21 -21 4 -3 13 -1 19 6 16 7 -2 13 -11 15 -20z m-1514 -8 c-11 -5 -13 -8
-5 -8 8 -1 12 -3 9 -6 -3 -3 -12 -3 -21 1 -13 4 -14 9 -4 19 6 7 18 10 26 7
11 -4 10 -7 -5 -13z m426 17 c0 -2 -13 -6 -30 -8 -16 -3 -30 -1 -30 4 0 4 14
8 30 8 17 0 30 -2 30 -4z m-95 -16 c-3 -5 -15 -10 -26 -10 -11 0 -17 5 -14 10
3 6 15 10 26 10 11 0 17 -4 14 -10z m-286 -21 c-22 -13 -31 -11 -17 5 7 8 17
12 22 9 4 -3 2 -9 -5 -14z m3084 -45 c-4 -10 -10 -11 -24 -3 -25 13 -24 18 4
12 21 -4 22 -4 3 11 -11 9 -26 16 -33 16 -7 0 -10 6 -7 15 5 12 12 10 34 -12
16 -14 26 -32 23 -39z m262 48 c-3 -3 -11 0 -18 7 -9 10 -8 11 6 5 10 -3 15
-9 12 -12z m-2885 -2 c-12 -8 -12 -10 -1 -10 8 0 12 -2 9 -5 -3 -3 -13 -2 -22
1 -14 5 -15 9 -4 15 7 5 18 9 23 9 6 0 3 -5 -5 -10z m183 -9 c14 -14 -23 -41
-57 -41 -19 0 -50 -7 -70 -15 -21 -9 -36 -11 -36 -5 0 5 8 10 18 11 10 0 12 3
4 6 -6 2 -10 9 -6 14 3 5 0 9 -5 9 -6 0 -11 -4 -11 -9 0 -5 -14 -14 -30 -21
-17 -7 -35 -20 -40 -29 -7 -11 -9 -12 -10 -2 0 9 -8 11 -27 7 -21 -5 -24 -4
-13 4 8 5 23 10 33 10 19 0 51 16 80 40 15 11 22 12 37 2 24 -15 90 -15 110
-1 11 8 2 9 -35 5 -27 -2 -41 -1 -31 3 26 10 3 25 -27 17 -12 -3 -29 -1 -37 4
-9 5 16 7 65 4 44 -3 84 -9 88 -13z m-530 2 c-7 -2 -19 -2 -25 0 -7 3 -2 5 12
5 14 0 19 -2 13 -5z m1330 -11 c-6 -4 -20 -23 -32 -42 -11 -19 -21 -30 -21
-25 0 6 7 21 16 34 14 19 14 25 3 33 -11 8 -10 9 3 4 10 -3 20 -1 24 5 3 6 9
8 12 4 4 -3 1 -9 -5 -13z m-1864 -49 c-1 -62 -6 -56 -11 15 -2 23 0 42 4 42 5
0 7 -26 7 -57z m18 -5 c-2 -13 -4 -3 -4 22 0 25 2 35 4 23 2 -13 2 -33 0 -45z
m827 56 c46 -18 -20 -40 -69 -24 -28 9 -27 10 12 6 43 -4 69 8 36 17 -10 3
-13 5 -6 6 6 0 18 -2 27 -5z m529 -1 c-7 -2 -19 -2 -25 0 -7 3 -2 5 12 5 14 0
19 -2 13 -5z m214 -11 c-14 -3 -15 -7 -7 -17 9 -10 6 -15 -10 -20 -12 -4 -24
-4 -27 -1 -4 3 -1 6 5 6 7 0 12 4 12 9 0 5 -19 7 -42 4 -32 -3 -39 -2 -28 6 8
6 28 11 43 11 16 0 26 4 23 9 -3 4 7 6 22 3 20 -4 22 -7 9 -10z m193 -2 c0
-11 -4 -20 -10 -20 -5 0 -10 -4 -10 -10 0 -16 27 -12 34 5 3 8 3 23 -1 33 -5
14 -3 15 7 5 11 -10 11 -18 2 -38 -7 -15 -10 -30 -8 -34 3 -4 -8 -8 -24 -8
-17 0 -30 5 -30 11 0 11 -13 22 -50 46 -13 9 -13 11 0 20 8 5 32 10 53 10 30
0 37 -4 37 -20z m1360 9 c0 -6 -7 -17 -15 -25 -12 -12 -15 -12 -15 -2 0 10 -3
9 -10 -2 -9 -13 -10 -13 -10 0 0 12 -2 12 -9 2 -7 -11 -10 -10 -15 3 -11 30
-6 35 34 35 22 0 40 -5 40 -11z m550 -9 c-13 -8 -13 -10 -1 -10 8 0 12 -2 10
-5 -3 -2 -15 -1 -28 2 l-23 6 23 13 c26 14 42 8 19 -6z m-2506 4 c19 -7 11
-24 -10 -24 -8 0 -13 4 -9 9 3 6 -16 12 -42 14 l-48 3 47 2 c25 1 53 -1 62 -4z
m141 -4 c3 -6 -1 -7 -9 -4 -18 7 -21 14 -7 14 6 0 13 -4 16 -10z m140 0 c-3
-5 -23 -9 -43 -9 l-37 2 40 7 c22 4 41 8 43 9 2 0 0 -3 -3 -9z m1424 -55 c0
-15 -5 -11 -19 15 -25 45 -25 62 0 30 11 -14 19 -34 19 -45z m-2289 51 c0 -3
-4 -8 -10 -11 -5 -3 -10 -1 -10 4 0 6 5 11 10 11 6 0 10 -2 10 -4z m90 -6 c3
-1 -8 -5 -25 -9 -16 -4 -29 -12 -27 -19 2 -14 -34 -16 -42 -3 -3 5 4 11 17 15
18 5 19 8 7 16 -10 6 -3 8 25 6 22 -2 42 -5 45 -6z m2940 -8 c-5 -2 -10 -10
-10 -17 0 -12 -23 -18 -112 -30 -46 -6 -58 10 -18 24 17 5 30 14 30 19 0 5 27
8 60 8 33 0 56 -2 50 -4z m188 -67 c0 -16 -2 -15 -8 5 -4 14 -8 36 -8 50 0 22
1 22 8 -5 4 -16 8 -39 8 -50z m-3050 58 c-10 -2 -28 -2 -40 0 -13 2 -5 4 17 4
22 1 32 -1 23 -4z m655 0 c-7 -2 -21 -2 -30 0 -10 3 -4 5 12 5 17 0 24 -2 18
-5z m194 -15 c-3 -8 -6 -5 -6 6 -1 11 2 17 5 13 3 -3 4 -12 1 -19z m-930 6
c-3 -3 -12 -4 -19 -1 -8 3 -5 6 6 6 11 1 17 -2 13 -5z m821 -1 c-10 -2 -28 -2
-40 0 -13 2 -5 4 17 4 22 1 32 -1 23 -4z m2192 -3 c0 -5 -12 -10 -27 -9 -25 0
-26 1 -8 9 27 12 35 12 35 0z m-2831 -27 c-17 -22 -31 -33 -43 -33 -4 0 2 11
15 25 27 28 49 34 28 8z m834 10 c-7 -2 -19 -2 -25 0 -7 3 -2 5 12 5 14 0 19
-2 13 -5z m1270 -10 c-7 -2 -19 -2 -25 0 -7 3 -2 5 12 5 14 0 19 -2 13 -5z
m444 -6 c26 0 40 -3 37 -9 -4 -7 -30 -7 -68 -3 -33 5 -78 9 -98 9 -20 1 -40 5
-44 8 -3 4 25 4 62 1 38 -4 88 -6 111 -6z m227 4 c-48 -12 -61 -23 -38 -33 11
-5 -3 -6 -36 -3 -30 2 -68 5 -85 5 l-30 2 34 10 c26 7 36 6 42 -4 7 -10 9 -10
9 0 0 6 7 12 15 12 8 0 15 5 15 10 0 6 23 10 53 9 44 -1 48 -2 21 -8z m79 2
c-7 -2 -21 -2 -30 0 -10 3 -4 5 12 5 17 0 24 -2 18 -5z m-2693 -13 c-8 -5 -24
-9 -35 -9 l-20 0 20 9 c11 5 27 9 35 9 13 1 13 0 0 -9z m212 -8 c-7 -2 -12
-13 -12 -24 0 -12 -3 -19 -6 -15 -11 11 6 58 18 51 9 -6 9 -9 0 -12z m1971 11
c-7 -2 -19 -2 -25 0 -7 3 -2 5 12 5 14 0 19 -2 13 -5z m572 -18 c0 -10 -6 -19
-13 -21 -7 -1 -8 0 -2 3 5 2 10 11 10 18 0 7 -5 16 -10 18 -6 3 -5 4 2 3 7 -2
13 -11 13 -21z m-2817 -10 c-3 -3 -9 2 -12 12 -6 14 -5 15 5 6 7 -7 10 -15 7
-18z m377 9 c-9 -9 -19 -13 -23 -10 -3 4 0 11 8 16 24 15 33 11 15 -6z m2310
6 c3 -5 -1 -10 -9 -10 -9 0 -16 5 -16 10 0 6 4 10 9 10 6 0 13 -4 16 -10z m85
0 c12 -7 8 -10 -15 -10 -30 -1 -30 -1 10 -19 22 -11 32 -20 23 -20 -9 -1 -20
4 -24 10 -3 6 -15 9 -25 6 -11 -3 -17 -1 -13 4 3 5 0 9 -6 9 -7 0 -6 5 2 15
15 17 28 18 48 5z m-2220 -4 c0 -2 -15 -6 -34 -8 -19 -2 -32 0 -30 4 5 8 64
12 64 4z m157 -11 c18 1 30 -2 27 -7 -9 -13 -64 -5 -77 12 -10 12 -9 13 3 4 8
-5 29 -10 47 -9z m-406 -12 c13 -16 12 -17 -3 -4 -10 7 -18 15 -18 17 0 8 8 3
21 -13z m113 8 c4 -5 -3 -7 -14 -4 -23 6 -26 13 -6 13 8 0 17 -4 20 -9z m201
-11 c10 -11 14 -20 9 -20 -5 0 -17 9 -27 20 -9 11 -13 20 -8 20 4 0 16 -9 26
-20z m-1567 -47 l0 -58 -9 45 c-8 41 -6 70 4 70 3 0 4 -26 5 -57z m832 32 c-7
-9 -10 -38 -7 -75 3 -40 1 -60 -7 -60 -7 0 -11 25 -11 69 0 38 3 67 8 64 4 -2
7 3 7 12 0 9 5 13 10 10 8 -5 7 -11 0 -20z m925 10 c39 -17 21 -18 -25 0 -19
7 -28 14 -20 14 8 0 29 -6 45 -14z m1348 8 c-13 -2 -35 -2 -50 0 -16 2 -5 4
22 4 28 0 40 -2 28 -4z m699 -33 c6 0 9 -2 6 -5 -13 -14 -35 7 -30 28 l7 22 3
-22 c2 -13 8 -23 14 -23z m-2468 14 c3 -8 2 -12 -4 -9 -6 3 -10 10 -10 16 0
14 7 11 14 -7z m-344 -9 c10 -13 11 -18 1 -28 -10 -9 -11 -8 -5 7 5 13 4 17
-3 13 -6 -4 -13 0 -17 8 -7 20 8 19 24 0z m690 7 c0 -5 -7 -17 -16 -28 -15
-18 -15 -18 -5 3 8 16 8 23 -2 26 -7 3 -5 6 6 6 9 1 17 -3 17 -7z m125 -12
c-10 -11 -23 -20 -28 -20 -6 0 -2 9 8 20 10 11 23 20 28 20 6 0 2 -9 -8 -20z
m1100 11 c3 -6 14 -8 25 -6 12 2 18 0 15 -5 -6 -9 -24 -8 -42 3 -7 4 -16 0
-21 -9 -8 -15 -10 -15 -15 0 -4 10 -3 15 3 11 6 -3 10 -1 10 4 0 14 17 14 25
2z m123 2 c-10 -2 -26 -2 -35 0 -10 3 -2 5 17 5 19 0 27 -2 18 -5z m132 -13
c6 -11 9 -20 8 -20 -2 0 -11 9 -21 20 -9 11 -13 20 -7 20 5 0 14 -9 20 -20z
m115 -2 c-4 -41 -6 -43 -16 -25 -8 13 -7 22 1 33 16 19 18 18 15 -8z m-3195
-28 c0 -33 -3 -40 -20 -40 -17 0 -20 7 -20 40 0 33 3 40 20 40 17 0 20 -7 20
-40z m948 20 c-7 -11 -15 -15 -17 -9 -2 6 3 15 10 20 20 12 21 11 7 -11z m807
0 c-3 -5 -11 -10 -16 -10 -6 0 -7 5 -4 10 3 6 11 10 16 10 6 0 7 -4 4 -10z
m1755 -15 c0 -25 -15 -24 -16 1 -1 13 2 21 7 18 5 -3 9 -11 9 -19z m-2277 -56
c-3 -10 -8 -19 -10 -19 -3 0 -3 9 0 20 3 10 1 20 -3 22 -4 2 -11 14 -14 28 -7
24 -7 24 12 -3 11 -16 17 -37 15 -48z m41 55 c3 -8 2 -12 -4 -9 -6 3 -10 10
-10 16 0 14 7 11 14 -7z m268 -41 c-8 -24 -17 -13 -19 24 -2 36 -1 36 11 13 7
-14 11 -31 8 -37z m-684 22 c-3 -3 -9 2 -12 12 -6 14 -5 15 5 6 7 -7 10 -15 7
-18z m2003 1 c18 16 19 16 19 -1 0 -10 -3 -15 -7 -12 -11 11 -32 -14 -26 -31
4 -14 3 -15 -5 -2 -6 8 -9 17 -6 21 2 4 -3 12 -11 19 -8 7 -15 18 -14 24 0 6
7 1 16 -12 15 -21 17 -22 34 -6z m679 14 c0 -5 -4 -10 -10 -10 -5 0 -10 5 -10
10 0 6 5 10 10 10 6 0 10 -4 10 -10z m77 4 c-3 -3 -12 -4 -19 -1 -8 3 -5 6 6
6 11 1 17 -2 13 -5z m-2020 -26 c-3 -8 -6 -5 -6 6 -1 11 2 17 5 13 3 -3 4 -12
1 -19z m1812 8 c9 -10 8 -15 -3 -19 -11 -4 -13 -1 -9 10 5 13 2 15 -11 10 -10
-4 -15 -3 -11 3 9 14 21 12 34 -4z m-2449 -31 c0 -5 -5 -3 -10 5 -5 8 -10 20
-10 25 0 6 5 3 10 -5 5 -8 10 -19 10 -25z m755 27 c-6 -4 -21 -20 -33 -36 -12
-16 -22 -24 -22 -19 0 16 40 63 53 63 8 0 8 -3 2 -8z m1417 -48 c-6 -35 -12
-29 -10 11 1 20 4 31 8 25 4 -6 5 -22 2 -36z m95 -20 c-2 -2 -17 12 -32 33
l-27 38 32 -33 c18 -18 30 -35 27 -38z m433 62 c0 -2 -9 -6 -20 -9 -11 -3 -18
-1 -14 4 5 9 34 13 34 5z m38 -21 c-3 -3 -9 2 -12 12 -6 14 -5 15 5 6 7 -7 10
-15 7 -18z m-251 -7 c-3 -8 -6 -5 -6 6 -1 11 2 17 5 13 3 -3 4 -12 1 -19z
m-2150 -10 c-3 -8 -6 -5 -6 6 -1 11 2 17 5 13 3 -3 4 -12 1 -19z m346 -21 c-3
-20 -9 -37 -13 -37 -4 0 -3 18 2 40 13 50 20 48 11 -3z m1228 16 c-12 -20 -14
-14 -5 12 4 9 9 14 11 11 3 -2 0 -13 -6 -23z m386 -5 c-3 -7 -5 -2 -5 12 0 14
2 19 5 13 2 -7 2 -19 0 -25z m261 7 c-3 -3 -9 2 -12 12 -6 14 -5 15 5 6 7 -7
10 -15 7 -18z m232 -41 c0 -8 -4 -14 -10 -14 -5 0 -7 6 -4 13 3 8 -2 20 -11
27 -8 7 -15 18 -15 24 1 16 40 -33 40 -50z m-2429 0 c-5 -21 -9 -30 -10 -19
-1 24 10 67 15 62 3 -2 0 -22 -5 -43z m239 36 c0 -5 -4 -10 -10 -10 -5 0 -10
5 -10 10 0 6 5 10 10 10 6 0 10 -4 10 -10z m1595 -21 c-5 -14 -3 -17 9 -13 11
4 16 0 16 -13 0 -10 6 -25 13 -32 10 -11 9 -13 -3 -9 -8 2 -17 14 -20 25 -3
12 -12 19 -22 17 -20 -3 -24 11 -7 21 6 4 8 14 5 22 -3 8 -1 11 5 8 5 -4 7
-15 4 -26z m-1898 -1 c-3 -8 -6 -5 -6 6 -1 11 2 17 5 13 3 -3 4 -12 1 -19z
m2223 -13 c0 -5 -5 -3 -10 5 -5 8 -10 20 -10 25 0 6 5 3 10 -5 5 -8 10 -19 10
-25z m-2232 -35 c0 -9 -3 -7 -8 5 -5 11 -8 29 -8 40 0 16 2 15 8 -5 4 -14 8
-32 8 -40z m2463 27 c-10 -9 -11 -8 -5 6 3 10 9 15 12 12 3 -3 0 -11 -7 -18z
m-786 3 c3 -5 1 -10 -4 -10 -6 0 -11 5 -11 10 0 6 2 10 4 10 3 0 8 -4 11 -10z
m-1355 -4 c0 -2 -7 -7 -16 -10 -8 -3 -12 -2 -9 4 6 10 25 14 25 6z m1897 -22
c2 -13 1 -15 -4 -4 -3 8 -11 19 -17 23 -7 6 -6 7 4 4 8 -2 16 -12 17 -23z
m-3502 -60 c-2 -41 -5 -78 -8 -80 -11 -12 -18 115 -8 135 7 12 13 21 16 21 2
0 2 -34 0 -76z m32 44 c-3 -7 -5 -2 -5 12 0 14 2 19 5 13 2 -7 2 -19 0 -25z
m746 -15 c-8 -65 -13 -67 -13 -5 0 29 4 52 10 52 6 0 7 -19 3 -47z m2824 15
c-3 -7 -5 -2 -5 12 0 14 2 19 5 13 2 -7 2 -19 0 -25z m-2567 18 c0 -2 -11 -6
-25 -8 -14 -3 -25 -1 -25 3 0 5 11 9 25 9 14 0 25 -2 25 -4z m639 -3 c0 -5 -4
-17 -8 -28 -7 -17 -8 -17 -13 8 -4 19 -1 27 8 27 8 0 14 -3 13 -7z m1323 -13
c12 -11 17 -20 11 -20 -5 0 -18 9 -28 20 -10 11 -15 20 -11 20 4 0 16 -9 28
-20z m202 -29 c-6 -6 -11 1 -18 29 l-7 25 15 -25 c8 -14 12 -27 10 -29z
m-2127 33 c-3 -3 -12 -4 -19 -1 -8 3 -5 6 6 6 11 1 17 -2 13 -5z m166 -1 c-7
-2 -19 -2 -25 0 -7 3 -2 5 12 5 14 0 19 -2 13 -5z m284 1 c-3 -3 -12 -4 -19
-1 -8 3 -5 6 6 6 11 1 17 -2 13 -5z m43 -6 c17 -11 22 -10 30 2 8 13 10 12 10
-2 0 -15 -8 -18 -42 -17 -24 1 -34 4 -24 6 15 4 16 7 5 14 -8 5 -11 9 -6 9 4
0 16 -6 27 -12z m1947 -40 c-3 -7 -5 -2 -5 12 0 14 2 19 5 13 2 -7 2 -19 0
-25z m-3488 -28 c0 -10 -3 -8 -9 5 -12 27 -12 43 0 25 5 -8 9 -22 9 -30z
m3016 30 c3 -5 1 -10 -4 -10 -6 0 -11 5 -11 10 0 6 2 10 4 10 3 0 8 -4 11 -10z
m495 -15 c0 -17 -5 -25 -17 -24 -11 0 -13 3 -5 6 6 2 12 13 12 24 0 10 2 19 5
19 3 0 5 -11 5 -25z m280 15 c0 -5 -5 -10 -11 -10 -5 0 -7 5 -4 10 3 6 8 10
11 10 2 0 4 -4 4 -10z m-500 -11 c0 -5 -4 -7 -10 -4 -5 3 -10 1 -10 -6 0 -7
-3 -10 -6 -6 -8 7 4 27 17 27 5 0 9 -5 9 -11z m180 -14 c0 -8 -7 -15 -15 -15
-13 0 -14 3 -3 15 16 18 18 18 18 0z m147 9 c-3 -3 -12 -4 -19 -1 -8 3 -5 6 6
6 11 1 17 -2 13 -5z m-274 -11 c-7 -2 -19 -2 -25 0 -7 3 -2 5 12 5 14 0 19 -2
13 -5z m437 -3 c11 -8 7 -9 -15 -4 -37 8 -45 14 -19 14 10 0 26 -5 34 -10z
m-203 -6 c-3 -3 -12 -4 -19 -1 -8 3 -5 6 6 6 11 1 17 -2 13 -5z m187 -13 c4
-5 -12 -7 -36 -4 -57 8 -61 13 -10 13 22 0 43 -4 46 -9z m-489 -49 c-3 -3 -11
0 -18 7 -9 10 -8 11 6 5 10 -3 15 -9 12 -12z m-3270 -2 c3 -5 2 -10 -4 -10 -5
0 -13 5 -16 10 -3 6 -2 10 4 10 5 0 13 -4 16 -10z m115 -240 c0 -5 -4 -10 -10
-10 -5 0 -10 5 -10 10 0 6 5 10 10 10 6 0 10 -4 10 -10z"/>
<path d="M7600 7533 c-52 -19 -69 -93 -30 -128 48 -44 120 -8 120 60 0 45 -49
83 -90 68z m57 -53 c23 -47 -29 -90 -68 -54 -23 21 -24 47 -3 69 23 22 56 15
71 -15z"/>
<path d="M7319 7203 c-24 -6 -51 -60 -43 -86 17 -57 84 -77 124 -37 54 54 -4
144 -81 123z m67 -52 c14 -28 9 -48 -18 -62 -43 -23 -90 45 -56 79 20 20 61
10 74 -17z"/>
<path d="M7185 6745 c-30 -30 -32 -64 -4 -99 41 -52 129 -20 129 48 0 34 -41
76 -75 76 -14 0 -37 -11 -50 -25z m82 -13 c15 -9 19 -32 9 -59 -5 -16 -15 -23
-35 -23 -32 0 -51 16 -51 45 0 38 43 59 77 37z"/>
<path d="M8321 6720 c-111 -20 -362 -90 -418 -117 -61 -29 -80 -83 -47 -133
43 -64 171 -176 384 -336 160 -121 282 -133 376 -38 167 167 -28 510 -198 347
-57 -55 -58 -155 0 -170 31 -7 52 17 52 62 0 96 100 53 115 -49 19 -124 -81
-194 -194 -136 -177 90 -152 408 39 488 112 47 254 -40 279 -171 14 -79 19
-81 149 -74 120 7 142 15 142 53 0 34 -28 44 -119 44 l-79 0 -18 52 c-12 38
-33 69 -74 110 -91 90 -178 106 -389 68z m-92 -152 c-32 -62 -49 -134 -49
-205 0 -35 -3 -63 -6 -63 -10 0 -87 63 -176 145 l-78 70 28 14 c27 15 252 78
285 80 16 1 16 -2 -4 -41z"/>
<path d="M9375 6085 c-70 -69 28 -179 104 -117 38 30 28 116 -16 133 -39 15
-62 11 -88 -16z m83 -27 c30 -30 0 -75 -42 -64 -29 7 -40 31 -26 57 12 21 50
25 68 7z"/>
<path d="M9206 5719 c-35 -28 -36 -80 -1 -114 56 -57 145 -5 129 75 -12 58
-78 79 -128 39z m82 -31 c30 -30 0 -75 -43 -64 -19 5 -25 13 -25 35 0 15 3 31
7 34 11 11 48 8 61 -5z"/>
<path d="M8885 5468 c-51 -30 -60 -84 -20 -123 33 -33 78 -33 112 1 21 21 24
32 20 62 -4 19 -12 41 -19 49 -19 19 -70 25 -93 11z m63 -40 c34 -34 -6 -90
-48 -68 -35 19 -20 80 20 80 9 0 21 -5 28 -12z"/>
<path d="M5020 6530 c-18 -11 -30 1 190 -190 91 -79 181 -157 200 -174 19 -17
85 -75 145 -128 98 -85 154 -144 179 -185 14 -24 -48 -65 -249 -165 -222 -111
-420 -226 -456 -264 -36 -38 -17 -59 52 -58 154 4 745 198 1045 344 143 69
168 94 161 157 -5 51 -13 61 -99 130 -162 129 -349 223 -807 408 -352 141
-341 138 -361 125z"/>
<path d="M2756 6451 c-3 -5 20 -26 52 -46 82 -55 167 -139 223 -222 65 -96
136 -236 122 -240 -31 -11 -108 -70 -147 -114 -89 -99 -117 -249 -63 -341 32
-55 76 -94 137 -122 36 -17 65 -21 146 -21 71 0 106 4 118 14 27 23 18 31 -36
31 -132 0 -226 34 -282 103 -28 35 -31 45 -31 110 0 50 6 82 19 106 28 53 94
118 157 157 74 45 80 63 41 140 -75 147 -228 319 -361 406 -76 50 -86 54 -95
39z"/>
<path d="M3744 3068 c-7 -10 44 -8 76 2 19 6 14 8 -23 7 -27 -1 -51 -5 -53 -9z"/>
<path d="M3690 3053 c-13 -15 -12 -16 4 -10 10 4 22 7 27 7 5 0 9 5 9 10 0 15
-23 11 -40 -7z"/>
<path d="M3866 3055 c-17 -13 -18 -15 -3 -15 9 0 17 4 17 9 0 5 10 12 23 14
19 4 19 4 2 5 -11 1 -29 -5 -39 -13z"/>
<path d="M3851 2943 c7 -10 15 -20 16 -22 2 -2 3 5 3 17 0 14 -6 22 -16 22
-14 0 -15 -3 -3 -17z"/>
<path d="M3904 2946 c-10 -8 -17 -16 -14 -19 8 -8 50 11 50 23 0 14 -13 13
-36 -4z"/>
<path d="M3960 2933 c8 -3 21 -10 28 -16 9 -7 11 -6 6 7 -3 9 -16 16 -28 15
-14 0 -16 -2 -6 -6z"/>
<path d="M4010 2916 c0 -8 5 -18 10 -21 6 -4 7 -12 3 -18 -3 -7 3 -3 15 7 12
11 25 16 30 12 4 -4 -2 -14 -12 -22 -19 -14 -19 -14 2 -34 25 -24 40 -27 22
-5 -9 11 -10 19 -3 26 16 16 3 57 -20 63 -35 9 -47 7 -47 -8z"/>
<path d="M3841 2895 c-1 -24 68 -88 98 -90 20 -2 20 0 5 16 -9 10 -22 15 -29
13 -13 -6 -49 36 -39 45 3 3 10 -2 15 -12 15 -26 29 -20 16 7 -11 24 -46 32
-48 11 0 -5 -4 -1 -9 10 l-9 20 0 -20z"/>
<path d="M4268 2893 c7 -3 16 -2 19 1 4 3 -2 6 -13 5 -11 0 -14 -3 -6 -6z"/>
<path d="M4140 2865 c7 -9 15 -13 17 -11 7 7 -7 26 -19 26 -6 0 -6 -6 2 -15z"/>
<path d="M4090 2855 c0 -5 5 -17 10 -25 9 -13 11 -13 20 0 8 12 11 13 19 1 5
-8 11 -9 15 -3 7 12 -22 25 -36 16 -6 -4 -14 0 -19 7 -5 8 -9 10 -9 4z"/>
<path d="M3840 2843 c0 -16 38 -45 52 -40 10 4 10 6 -1 6 -7 1 -22 11 -32 23
-11 11 -19 17 -19 11z"/>
<path d="M4114 2803 c-6 -2 3 -19 20 -37 30 -33 52 -42 26 -11 -10 12 -10 18
0 30 7 8 11 15 9 16 -17 4 -47 5 -55 2z"/>
<path d="M4220 2785 c7 -9 15 -13 17 -11 7 7 -7 26 -19 26 -6 0 -6 -6 2 -15z"/>
<path d="M3970 2781 c0 -5 5 -13 10 -16 6 -3 10 -2 10 4 0 5 -4 13 -10 16 -5
3 -10 2 -10 -4z"/>
<path d="M3671 2764 c0 -11 3 -14 6 -6 3 7 2 16 -1 19 -3 4 -6 -2 -5 -13z"/>
<path d="M3930 2770 c0 -5 7 -10 16 -10 8 0 12 5 9 10 -3 6 -10 10 -16 10 -5
0 -9 -4 -9 -10z"/>
<path d="M4170 2775 c0 -5 5 -17 10 -25 9 -13 11 -13 20 0 8 12 11 13 19 1 5
-8 11 -9 15 -3 7 12 -22 25 -36 16 -6 -4 -14 0 -19 7 -5 8 -9 10 -9 4z"/>
<path d="M4004 2747 c0 -14 7 -23 18 -23 22 0 22 -2 -1 25 l-19 22 2 -24z"/>
<path d="M4667 2731 c27 -25 32 -35 27 -61 -6 -27 -4 -30 19 -30 14 0 28 4 32
10 3 5 13 6 22 3 11 -5 14 -3 9 6 -5 8 -18 10 -32 7 -14 -4 -24 -2 -24 4 0 5
5 10 11 10 17 0 4 13 -48 49 l-48 33 32 -31z"/>
<path d="M3950 2730 c0 -5 5 -10 11 -10 5 0 7 5 4 10 -3 6 -8 10 -11 10 -2 0
-4 -4 -4 -10z"/>
<path d="M4560 2730 c0 -6 7 -10 15 -10 8 0 15 2 15 4 0 2 -7 6 -15 10 -8 3
-15 1 -15 -4z"/>
<path d="M4187 2724 c-2 -3 9 -18 25 -34 31 -31 50 -41 28 -15 -10 12 -10 18
0 30 7 8 11 15 9 16 -29 5 -58 6 -62 3z"/>
<path d="M4300 2705 c7 -9 15 -13 17 -11 7 7 -7 26 -19 26 -6 0 -6 -6 2 -15z"/>
<path d="M4050 2701 c0 -5 5 -13 10 -16 6 -3 10 -2 10 4 0 5 -4 13 -10 16 -5
3 -10 2 -10 -4z"/>
<path d="M4010 2690 c0 -5 7 -10 16 -10 8 0 12 5 9 10 -3 6 -10 10 -16 10 -5
0 -9 -4 -9 -10z"/>
<path d="M4250 2695 c0 -5 5 -17 10 -25 9 -13 11 -13 20 0 8 12 11 13 19 1 5
-8 11 -9 15 -3 7 12 -22 25 -36 16 -6 -4 -14 0 -19 7 -5 8 -9 10 -9 4z"/>
<path d="M4085 2670 c7 -22 6 -23 -9 -11 -10 9 -16 10 -16 2 0 -6 3 -11 8 -12
4 0 17 -2 30 -3 27 -3 27 -4 1 25 l-21 24 7 -25z"/>
<path d="M4030 2650 c0 -5 5 -10 11 -10 5 0 7 5 4 10 -3 6 -8 10 -11 10 -2 0
-4 -4 -4 -10z"/>
<path d="M4274 2643 c-6 -2 3 -19 20 -37 30 -33 52 -42 26 -11 -10 12 -10 18
0 30 7 8 11 15 9 16 -17 4 -47 5 -55 2z"/>
<path d="M4380 2625 c7 -9 15 -13 17 -11 7 7 -7 26 -19 26 -6 0 -6 -6 2 -15z"/>
<path d="M4130 2621 c0 -5 5 -13 10 -16 6 -3 10 -2 10 4 0 5 -4 13 -10 16 -5
3 -10 2 -10 -4z"/>
<path d="M4090 2610 c0 -5 7 -10 16 -10 8 0 12 5 9 10 -3 6 -10 10 -16 10 -5
0 -9 -4 -9 -10z"/>
<path d="M4330 2615 c0 -5 5 -17 10 -25 9 -13 11 -13 20 0 8 12 11 13 19 1 5
-8 11 -9 15 -3 7 12 -22 25 -36 16 -6 -4 -14 0 -19 7 -5 8 -9 10 -9 4z"/>
<path d="M4164 2587 c0 -14 7 -23 18 -23 22 0 22 -2 -1 25 l-19 22 2 -24z"/>
<path d="M4347 2564 c-2 -3 9 -18 25 -34 31 -31 50 -41 28 -15 -10 12 -10 18
0 30 7 8 11 15 9 16 -29 5 -58 6 -62 3z"/>
<path d="M4460 2545 c7 -9 15 -13 17 -11 7 7 -7 26 -19 26 -6 0 -6 -6 2 -15z"/>
<path d="M4210 2541 c0 -5 5 -13 10 -16 6 -3 10 -2 10 4 0 5 -4 13 -10 16 -5
3 -10 2 -10 -4z"/>
<path d="M4170 2530 c0 -5 7 -10 16 -10 8 0 12 5 9 10 -3 6 -10 10 -16 10 -5
0 -9 -4 -9 -10z"/>
<path d="M4410 2535 c0 -5 5 -17 10 -25 9 -13 11 -13 20 0 8 12 11 13 19 1 5
-8 11 -9 15 -3 7 12 -22 25 -36 16 -6 -4 -14 0 -19 7 -5 8 -9 10 -9 4z"/>
<path d="M4245 2510 c7 -22 6 -23 -9 -11 -10 9 -16 10 -16 2 0 -6 3 -11 8 -12
4 0 17 -2 30 -3 27 -3 27 -4 1 25 l-21 24 7 -25z"/>
<path d="M4190 2490 c0 -5 5 -10 11 -10 5 0 7 5 4 10 -3 6 -8 10 -11 10 -2 0
-4 -4 -4 -10z"/>
<path d="M4916 2410 c94 -88 141 -121 83 -58 -16 18 -29 36 -29 40 0 4 -8 5
-17 2 -15 -5 -16 -4 -3 5 13 9 13 11 -2 11 -10 0 -15 5 -12 13 3 8 -2 20 -11
27 -18 15 -21 0 -3 -18 9 -9 9 -12 0 -12 -7 0 -17 11 -24 25 -6 13 -14 23 -18
20 -3 -2 -13 5 -20 16 -8 10 -20 19 -27 19 -7 0 31 -40 83 -90z"/>
<path d="M4434 2483 c-6 -2 3 -19 20 -37 30 -33 52 -42 26 -11 -10 12 -10 18
0 30 7 8 11 15 9 16 -17 4 -47 5 -55 2z"/>
<path d="M4540 2465 c7 -9 15 -13 17 -11 7 7 -7 26 -19 26 -6 0 -6 -6 2 -15z"/>
<path d="M4290 2461 c0 -5 5 -13 10 -16 6 -3 10 -2 10 4 0 5 -4 13 -10 16 -5
3 -10 2 -10 -4z"/>
<path d="M4250 2450 c0 -5 7 -10 16 -10 8 0 12 5 9 10 -3 6 -10 10 -16 10 -5
0 -9 -4 -9 -10z"/>
<path d="M4490 2455 c0 -5 5 -17 10 -25 9 -13 11 -13 20 0 8 12 11 13 19 1 5
-8 11 -9 15 -3 7 12 -22 25 -36 16 -6 -4 -14 0 -19 7 -5 8 -9 10 -9 4z"/>
<path d="M4324 2427 c0 -14 7 -23 18 -23 22 0 22 -2 -1 25 l-19 22 2 -24z"/>
<path d="M4950 2438 c0 -17 27 -44 36 -35 3 3 -3 16 -15 28 -16 18 -21 19 -21
7z"/>
<path d="M4507 2404 c-2 -3 9 -18 25 -34 31 -31 50 -41 28 -15 -10 12 -10 18
0 30 7 8 11 15 9 16 -29 5 -58 6 -62 3z"/>
<path d="M4620 2385 c7 -9 15 -13 17 -11 7 7 -7 26 -19 26 -6 0 -6 -6 2 -15z"/>
<path d="M4370 2381 c0 -5 5 -13 10 -16 6 -3 10 -2 10 4 0 5 -4 13 -10 16 -5
3 -10 2 -10 -4z"/>
<path d="M4330 2370 c0 -5 7 -10 16 -10 8 0 12 5 9 10 -3 6 -10 10 -16 10 -5
0 -9 -4 -9 -10z"/>
<path d="M4570 2375 c0 -5 5 -17 10 -25 9 -13 11 -13 20 0 8 12 11 13 19 1 5
-8 11 -9 15 -3 7 12 -22 25 -36 16 -6 -4 -14 0 -19 7 -5 8 -9 10 -9 4z"/>
<path d="M4405 2350 c7 -22 6 -23 -9 -11 -10 9 -16 10 -16 2 0 -6 3 -11 8 -12
4 0 17 -2 30 -3 27 -3 27 -4 1 25 l-21 24 7 -25z"/>
<path d="M4350 2330 c0 -5 5 -10 11 -10 5 0 7 5 4 10 -3 6 -8 10 -11 10 -2 0
-4 -4 -4 -10z"/>
<path d="M4594 2323 c-6 -2 3 -19 20 -37 30 -33 52 -42 26 -11 -10 12 -10 18
0 30 7 8 11 15 9 16 -17 4 -47 5 -55 2z"/>
<path d="M5105 2320 c3 -5 8 -10 11 -10 2 0 4 5 4 10 0 6 -5 10 -11 10 -5 0
-7 -4 -4 -10z"/>
<path d="M4700 2305 c7 -9 15 -13 17 -11 7 7 -7 26 -19 26 -6 0 -6 -6 2 -15z"/>
<path d="M4450 2301 c0 -5 5 -13 10 -16 6 -3 10 -2 10 4 0 5 -4 13 -10 16 -5
3 -10 2 -10 -4z"/>
<path d="M4880 2305 c0 -5 10 -19 22 -32 12 -13 17 -23 11 -23 -6 0 -13 6 -16
13 -2 6 -8 9 -12 4 -14 -13 11 -29 39 -25 l27 3 -35 34 c-20 19 -36 31 -36 26z"/>
<path d="M4410 2290 c0 -5 7 -10 16 -10 8 0 12 5 9 10 -3 6 -10 10 -16 10 -5
0 -9 -4 -9 -10z"/>
<path d="M4650 2295 c0 -5 5 -17 10 -25 9 -13 11 -13 20 0 8 12 11 13 19 1 5
-8 11 -9 15 -3 7 12 -22 25 -36 16 -6 -4 -14 0 -19 7 -5 8 -9 10 -9 4z"/>
<path d="M4484 2267 c0 -14 7 -23 18 -23 22 0 22 -2 -1 25 l-19 22 2 -24z"/>
<path d="M5123 2262 c0 -10 9 -19 19 -19 19 -2 22 6 10 22 -12 17 -31 15 -29
-3z"/>
<path d="M4667 2244 c-2 -3 9 -18 25 -34 31 -31 50 -41 28 -15 -10 12 -10 18
0 30 7 8 11 15 9 16 -29 5 -58 6 -62 3z"/>
<path d="M4780 2225 c7 -9 15 -13 17 -11 7 7 -7 26 -19 26 -6 0 -6 -6 2 -15z"/>
<path d="M4530 2221 c0 -5 5 -13 10 -16 6 -3 10 -2 10 4 0 5 -4 13 -10 16 -5
3 -10 2 -10 -4z"/>
<path d="M4964 2198 c1 -30 5 -33 35 -35 l33 -1 -33 34 c-18 19 -34 34 -35 34
-1 0 -1 -15 0 -32z m31 -18 c3 -5 1 -10 -4 -10 -6 0 -11 5 -11 10 0 6 2 10 4
10 3 0 8 -4 11 -10z"/>
<path d="M4490 2210 c0 -5 7 -10 16 -10 8 0 12 5 9 10 -3 6 -10 10 -16 10 -5
0 -9 -4 -9 -10z"/>
<path d="M4730 2215 c0 -5 5 -17 10 -25 9 -13 11 -13 20 0 8 12 11 13 19 1 5
-8 11 -9 15 -3 7 12 -22 25 -36 16 -6 -4 -14 0 -19 7 -5 8 -9 10 -9 4z"/>
<path d="M4565 2190 c7 -22 6 -23 -9 -11 -10 9 -16 10 -16 2 0 -6 6 -11 13
-11 8 0 7 -4 -3 -10 -9 -6 -10 -10 -3 -10 6 0 15 5 18 11 4 6 13 8 21 5 19 -7
18 -3 -7 25 l-21 24 7 -25z"/>
<path d="M4510 2171 c0 -6 -11 -11 -25 -11 -23 0 -95 -24 -95 -32 0 -2 8 -4
18 -5 9 0 43 -3 76 -6 72 -7 67 2 -6 12 -49 7 -51 8 -24 16 18 5 36 4 47 -4
10 -6 29 -11 41 -10 l23 0 -23 10 c-13 5 -21 13 -17 18 3 5 1 12 -5 16 -5 3
-10 1 -10 -4z"/>
<path d="M4754 2163 c-6 -2 3 -19 20 -37 30 -33 52 -42 26 -11 -10 12 -10 18
0 30 7 8 11 15 9 16 -17 4 -47 5 -55 2z"/>
<path d="M4242 2108 c2 -30 7 -51 13 -49 6 1 9 7 8 12 -2 5 -2 9 0 9 1 0 17 4
35 9 20 6 30 6 27 0 -4 -5 -12 -9 -20 -9 -8 0 -25 -11 -39 -25 -14 -14 -23
-25 -20 -25 2 0 0 -9 -6 -20 -6 -12 -16 -17 -26 -13 -13 5 -14 0 -9 -31 4 -20
3 -49 -3 -64 -13 -34 -24 -121 -13 -103 6 10 10 10 16 2 4 -7 1 -18 -5 -26
-14 -17 -3 -20 19 -6 11 7 11 13 -3 32 -9 13 -16 33 -16 44 1 11 11 -4 24 -35
13 -30 33 -61 43 -70 17 -13 18 -18 6 -28 -14 -13 -33 -8 -33 8 0 5 8 7 18 3
15 -6 15 -4 -2 15 -30 34 -46 28 -46 -17 0 -38 1 -39 34 -39 21 0 37 6 40 14
6 16 36 19 36 4 0 -5 -8 -10 -17 -11 -10 0 -13 -3 -6 -5 7 -3 22 0 34 6 15 9
19 9 14 1 -4 -8 10 -10 49 -7 57 5 60 2 57 -36 -1 -10 4 -18 13 -18 9 0 16 8
16 18 0 15 6 18 29 14 22 -3 32 1 40 17 11 19 10 20 -14 11 -15 -6 -34 -6 -47
0 -21 8 -20 9 9 9 40 1 63 10 63 24 0 7 -4 7 -12 -1 -20 -20 -32 -13 -13 8 10
11 20 18 23 15 9 -9 33 35 26 47 -5 7 -3 8 5 4 7 -5 10 -13 8 -20 -3 -7 3 -13
14 -13 11 -1 16 3 13 12 -3 7 0 16 6 20 25 15 -36 214 -77 249 -23 20 -24 23
-9 29 9 4 15 3 11 -2 -3 -5 6 -18 20 -29 14 -11 25 -27 25 -36 0 -9 6 -16 14
-16 8 0 16 -3 19 -7 2 -5 3 -3 1 3 -1 6 2 16 8 22 16 16 -8 42 -38 42 -24 0
-44 25 -38 48 1 7 0 8 -3 2 -2 -5 -17 -8 -31 -5 -24 5 -25 4 -7 -5 18 -9 17
-10 -5 -5 -14 2 -29 5 -35 5 -5 0 -4 4 4 9 10 7 8 9 -10 9 -13 -1 -44 2 -68 6
-31 4 -47 2 -52 -6 -6 -10 -12 -9 -26 6 -17 17 -17 18 2 12 11 -3 27 -1 35 4
11 7 7 10 -17 10 -18 0 -33 5 -33 10 0 6 -18 10 -41 10 l-40 0 3 -52z m167
-62 c-9 -10 -89 -33 -89 -26 0 4 15 12 33 18 34 11 63 15 56 8z m96 -36 c10
-11 16 -20 13 -20 -3 0 -13 9 -23 20 -10 11 -16 20 -13 20 3 0 13 -9 23 -20z
m125 5 c0 -8 -4 -15 -10 -15 -5 0 -10 7 -10 15 0 8 5 15 10 15 6 0 10 -7 10
-15z m-320 -46 c0 -5 -4 -8 -9 -5 -5 4 -14 -6 -19 -21 -6 -16 -11 -22 -11 -15
-1 19 18 52 29 52 6 0 10 -5 10 -11z m230 -9 c8 -15 8 -25 0 -38 -10 -15 -10
-14 -5 5 3 12 1 24 -5 28 -5 3 -10 10 -10 16 0 15 9 10 20 -11z m-224 -63 c-2
-7 -5 -4 -5 6 -1 9 -6 17 -12 17 -5 0 -7 5 -3 11 9 15 28 -16 20 -34z m-39
-19 c-3 -8 -6 -5 -6 6 -1 11 2 17 5 13 3 -3 4 -12 1 -19z m237 -53 c-16 -13
-25 -27 -21 -31 4 -5 12 -2 17 6 6 9 10 10 10 3 0 -17 -20 -27 -31 -16 -14 14
-1 41 23 49 15 4 18 12 14 32 -5 27 -5 27 6 4 10 -21 8 -26 -18 -47z m-210 11
c-3 -15 -8 -25 -11 -23 -2 3 -1 17 3 31 3 15 8 25 11 23 2 -3 1 -17 -3 -31z
m311 3 c-5 -15 -4 -19 4 -15 6 4 11 1 11 -8 0 -21 -16 -28 -28 -13 -6 7 -6 21
-1 35 11 28 23 29 14 1z m-295 -49 c0 -5 -2 -10 -4 -10 -3 0 -8 5 -11 10 -3 6
-1 10 4 10 6 0 11 -4 11 -10z m79 -41 c-22 -13 -31 -11 -17 5 7 8 17 12 22 9
4 -3 2 -9 -5 -14z"/>
<path d="M4860 2145 c7 -9 15 -13 17 -11 7 7 -7 26 -19 26 -6 0 -6 -6 2 -15z"/>
<path d="M4610 2141 c0 -5 5 -13 10 -16 6 -3 10 -2 10 4 0 5 -4 13 -10 16 -5
3 -10 2 -10 -4z"/>
<path d="M5040 2145 c0 -5 10 -19 22 -32 12 -13 17 -23 11 -23 -6 0 -13 6 -16
13 -2 6 -8 9 -12 4 -14 -13 11 -29 39 -25 l27 3 -35 34 c-20 19 -36 31 -36 26z"/>
<path d="M4570 2130 c0 -5 7 -10 16 -10 8 0 12 5 9 10 -3 6 -10 10 -16 10 -5
0 -9 -4 -9 -10z"/>
<path d="M4810 2135 c0 -5 5 -17 10 -25 9 -13 11 -13 20 0 8 12 11 13 19 1 5
-8 11 -9 15 -3 7 12 -22 25 -36 16 -6 -4 -14 0 -19 7 -5 8 -9 10 -9 4z"/>
<path d="M4644 2113 c5 -15 2 -25 -11 -32 -10 -6 -13 -11 -6 -11 6 0 15 5 18
11 4 6 13 8 21 5 19 -7 18 -3 -7 25 -21 23 -21 23 -15 2z"/>
<path d="M4586 2085 c-3 -9 0 -15 9 -15 9 0 12 6 9 15 -4 8 -7 15 -9 15 -2 0
-5 -7 -9 -15z"/>
<path d="M4827 2084 c-2 -3 9 -18 25 -34 31 -31 50 -41 28 -15 -10 12 -10 18
0 30 7 8 11 15 9 16 -29 5 -58 6 -62 3z"/>
<path d="M4940 2065 c7 -9 15 -13 17 -11 7 7 -7 26 -19 26 -6 0 -6 -6 2 -15z"/>
<path d="M4690 2061 c0 -5 5 -13 10 -16 6 -3 10 -2 10 4 0 5 -4 13 -10 16 -5
3 -10 2 -10 -4z"/>
<path d="M5120 2062 c0 -6 5 -12 10 -12 6 0 10 -5 10 -11 0 -5 -4 -7 -10 -4
-14 9 -13 -8 2 -23 17 -17 33 -15 18 3 -9 10 -9 15 -1 15 11 0 15 -12 12 -42
-1 -9 3 -19 9 -23 5 -3 10 -2 10 3 0 6 9 8 20 5 22 -6 27 -23 8 -23 -8 0 -9
-3 -3 -8 14 -10 17 -39 5 -47 -5 -3 -10 -11 -10 -16 0 -14 24 11 33 33 3 10 1
20 -5 24 -7 4 -7 9 0 13 6 3 -16 33 -49 66 -32 33 -59 54 -59 47z"/>
<path d="M4650 2050 c0 -5 7 -10 16 -10 8 0 12 5 9 10 -3 6 -10 10 -16 10 -5
0 -9 -4 -9 -10z"/>
<path d="M4890 2055 c0 -5 5 -17 10 -25 9 -13 11 -13 20 0 8 12 11 13 19 1 5
-8 11 -9 15 -3 7 12 -22 25 -36 16 -6 -4 -14 0 -19 7 -5 8 -9 10 -9 4z"/>
<path d="M3752 2030 c0 -14 2 -19 5 -12 2 6 2 18 0 25 -3 6 -5 1 -5 -13z"/>
<path d="M4725 2030 c7 -22 6 -23 -9 -11 -10 9 -16 10 -16 2 0 -6 3 -11 8 -12
4 0 17 -2 30 -3 27 -3 27 -4 1 25 l-21 24 7 -25z"/>
<path d="M4670 2010 c0 -5 5 -10 11 -10 5 0 7 5 4 10 -3 6 -8 10 -11 10 -2 0
-4 -4 -4 -10z"/>
<path d="M4914 2003 c-6 -2 3 -19 20 -37 30 -33 52 -42 26 -11 -10 12 -10 18
0 30 7 8 11 15 9 16 -17 4 -47 5 -55 2z"/>
<path d="M3751 1984 c0 -11 3 -14 6 -6 3 7 2 16 -1 19 -3 4 -6 -2 -5 -13z"/>
<path d="M4160 1993 c0 -6 5 -15 10 -18 6 -3 10 -14 10 -23 0 -13 -2 -14 -9
-4 -4 8 -8 -17 -7 -57 0 -39 4 -65 8 -58 4 7 5 30 3 52 -4 28 -3 34 3 20 8
-17 10 -15 16 16 3 20 2 47 -3 60 -5 13 -10 17 -11 9 0 -13 -1 -13 -10 0 -6 9
-10 10 -10 3z"/>
<path d="M5020 1985 c7 -9 15 -13 17 -11 7 7 -7 26 -19 26 -6 0 -6 -6 2 -15z"/>
<path d="M4770 1981 c0 -5 5 -13 10 -16 6 -3 10 -2 10 4 0 5 -4 13 -10 16 -5
3 -10 2 -10 -4z"/>
<path d="M4612 1970 c-1 -8 5 -28 12 -45 l13 -30 0 28 c0 15 -3 27 -8 27 -4 0
-10 8 -12 18 -3 12 -5 12 -5 2z"/>
<path d="M4730 1970 c0 -5 7 -10 16 -10 8 0 12 5 9 10 -3 6 -10 10 -16 10 -5
0 -9 -4 -9 -10z"/>
<path d="M4970 1975 c0 -5 5 -17 10 -25 9 -13 11 -13 20 0 8 12 11 13 19 1 5
-8 11 -9 15 -3 7 12 -22 25 -36 16 -6 -4 -14 0 -19 7 -5 8 -9 10 -9 4z"/>
<path d="M4804 1947 c0 -14 7 -23 18 -23 22 0 22 -2 -1 25 l-19 22 2 -24z"/>
<path d="M4750 1930 c0 -5 5 -10 11 -10 5 0 7 5 4 10 -3 6 -8 10 -11 10 -2 0
-4 -4 -4 -10z"/>
<path d="M4987 1924 c-5 -5 56 -73 62 -68 2 2 -2 10 -9 19 -10 12 -10 18 0 30
7 8 11 15 9 16 -28 5 -58 7 -62 3z"/>
<path d="M3751 1904 c0 -11 3 -14 6 -6 3 7 2 16 -1 19 -3 4 -6 -2 -5 -13z"/>
<path d="M5100 1905 c7 -9 15 -13 17 -11 7 7 -7 26 -19 26 -6 0 -6 -6 2 -15z"/>
<path d="M5170 1899 c0 -18 2 -19 15 -5 8 8 15 17 15 20 0 3 -7 6 -15 6 -9 0
-15 -9 -15 -21z"/>
<path d="M4850 1901 c0 -5 5 -13 10 -16 6 -3 10 -2 10 4 0 5 -4 13 -10 16 -5
3 -10 2 -10 -4z"/>
<path d="M4810 1890 c0 -5 7 -10 16 -10 8 0 12 5 9 10 -3 6 -10 10 -16 10 -5
0 -9 -4 -9 -10z"/>
<path d="M5050 1895 c0 -5 5 -17 10 -25 9 -13 11 -13 20 0 8 12 11 13 19 1 5
-8 11 -9 15 -3 7 12 -22 25 -36 16 -6 -4 -14 0 -19 7 -5 8 -9 10 -9 4z"/>
<path d="M5222 1865 c-12 -19 -18 -35 -12 -35 13 0 43 46 38 59 -1 6 -13 -5
-26 -24z"/>
<path d="M4885 1870 c7 -22 6 -23 -9 -11 -10 9 -16 10 -16 2 0 -6 3 -11 8 -12
4 0 17 -2 30 -3 27 -3 27 -4 1 25 l-21 24 7 -25z"/>
<path d="M4830 1850 c0 -5 5 -10 11 -10 5 0 7 5 4 10 -3 6 -8 10 -11 10 -2 0
-4 -4 -4 -10z"/>
<path d="M5166 1825 c-3 -9 0 -15 9 -15 8 0 15 7 15 15 0 8 -4 15 -9 15 -5 0
-11 -7 -15 -15z"/>
<path d="M4930 1821 c0 -5 5 -13 10 -16 6 -3 10 -2 10 4 0 5 -4 13 -10 16 -5
3 -10 2 -10 -4z"/>
<path d="M4890 1810 c0 -5 7 -10 16 -10 8 0 12 5 9 10 -3 6 -10 10 -16 10 -5
0 -9 -4 -9 -10z"/>
<path d="M4965 1790 c7 -23 7 -24 -11 -10 -18 14 -18 14 -3 -5 9 -11 14 -26
12 -32 -3 -7 2 -13 10 -13 9 0 18 -6 21 -12 5 -10 7 -10 12 -1 3 7 13 9 22 6
11 -4 6 6 -13 27 -61 69 -58 67 -50 40z m33 -38 c2 -7 -5 -12 -15 -11 -12 0
-14 2 -4 6 11 5 11 7 0 15 -12 8 -12 9 0 6 8 -3 17 -10 19 -16z"/>
<path d="M4160 1781 c0 -6 4 -13 10 -16 6 -3 7 1 4 9 -7 18 -14 21 -14 7z"/>
<path d="M4910 1770 c0 -5 5 -10 11 -10 5 0 7 5 4 10 -3 6 -8 10 -11 10 -2 0
-4 -4 -4 -10z"/>
<path d="M3870 1740 c0 -5 5 -10 10 -10 6 0 10 5 10 10 0 6 -4 10 -10 10 -5 0
-10 -4 -10 -10z"/>
<path d="M3896 1721 c-4 -7 -5 -15 -2 -18 9 -9 19 4 14 18 -4 11 -6 11 -12 0z"/>
<path d="M4960 1710 c0 -5 5 -10 11 -10 5 0 7 5 4 10 -3 6 -8 10 -11 10 -2 0
-4 -4 -4 -10z"/>
<path d="M3980 1670 c-9 -6 -10 -10 -3 -10 6 0 15 5 18 10 8 12 4 12 -15 0z"/>
<path d="M4860 1670 c-8 -5 -25 -10 -38 -10 -21 0 -22 -1 -8 -16 17 -17 61
-10 50 8 -4 7 2 8 17 3 21 -7 22 -6 10 9 -7 9 -14 16 -15 16 0 0 -8 -5 -16
-10z"/>
<path d="M5390 1670 c0 -5 5 -10 10 -10 6 0 10 5 10 10 0 6 -4 10 -10 10 -5 0
-10 -4 -10 -10z"/>
<path d="M5400 1633 c0 -5 7 -18 15 -29 12 -16 14 -16 15 -3 0 9 -7 22 -15 29
-8 7 -15 8 -15 3z"/>
<path d="M4408 1603 c7 -3 16 -2 19 1 4 3 -2 6 -13 5 -11 0 -14 -3 -6 -6z"/>
<path d="M4632 1591 c-8 -4 -13 -12 -13 -17 0 -5 -6 -9 -14 -9 -8 0 -22 -8
-32 -18 -16 -16 -16 -17 4 -17 12 0 25 5 28 10 3 6 17 10 31 10 13 0 24 5 24
10 0 6 -4 10 -10 10 -17 0 -11 18 8 23 12 3 13 5 2 6 -8 0 -21 -3 -28 -8z"/>
<path d="M4380 1500 c-13 -8 -13 -10 2 -10 9 0 20 5 23 10 8 13 -5 13 -25 0z"/>
<path d="M5200 2921 c0 -6 4 -13 10 -16 6 -3 7 1 4 9 -7 18 -14 21 -14 7z"/>
<path d="M4840 2701 c0 -6 5 -13 12 -17 6 -4 8 -3 4 4 -3 5 0 13 6 15 8 3 6 6
-4 6 -10 1 -18 -3 -18 -8z"/>
<path d="M5310 2730 c0 -5 5 -10 11 -10 5 0 7 5 4 10 -3 6 -8 10 -11 10 -2 0
-4 -4 -4 -10z"/>
<path d="M5401 2694 c0 -11 3 -14 6 -6 3 7 2 16 -1 19 -3 4 -6 -2 -5 -13z"/>
<path d="M5335 2180 c-3 -5 -1 -10 4 -10 6 0 11 5 11 10 0 6 -2 10 -4 10 -3 0
-8 -4 -11 -10z"/>
<path d="M6000 2191 c0 -11 31 -24 39 -16 3 3 -1 10 -9 15 -19 12 -30 12 -30
1z"/>
<path d="M6150 2151 c0 -5 5 -13 10 -16 6 -3 10 -2 10 4 0 5 -4 13 -10 16 -5
3 -10 2 -10 -4z"/>
<path d="M6458 1433 c7 -3 16 -2 19 1 4 3 -2 6 -13 5 -11 0 -14 -3 -6 -6z"/>
<path d="M5010 1460 c0 -5 5 -10 10 -10 6 0 10 5 10 10 0 6 -4 10 -10 10 -5 0
-10 -4 -10 -10z"/>
<path d="M7120 1385 c0 -5 5 -17 10 -25 5 -8 10 -10 10 -5 0 6 -5 17 -10 25
-5 8 -10 11 -10 5z"/>
<path d="M7280 1225 c0 -12 -5 -15 -17 -10 -13 4 -15 3 -7 -5 7 -7 20 -6 45 4
19 9 29 15 22 16 -6 0 -18 3 -27 6 -11 4 -16 1 -16 -11z"/>
<path d="M12390 10540 c0 -5 5 -10 10 -10 6 0 10 5 10 10 0 6 -4 10 -10 10 -5
0 -10 -4 -10 -10z"/>
<path d="M12130 7420 c0 -5 5 -10 10 -10 6 0 10 5 10 10 0 6 -4 10 -10 10 -5
0 -10 -4 -10 -10z"/>
<path d="M2337 5370 c-4 -41 -3 -88 1 -105 9 -30 9 -30 16 15 4 25 3 72 -2
105 l-8 60 -7 -75z m10 -72 c-2 -13 -4 -3 -4 22 0 25 2 35 4 23 2 -13 2 -33 0
-45z"/>
<path d="M10640 5080 c0 -5 7 -7 15 -4 8 4 15 8 15 10 0 2 -7 4 -15 4 -8 0
-15 -4 -15 -10z"/>
<path d="M11310 4535 c-7 -9 -10 -18 -7 -21 3 -3 10 4 17 15 13 25 8 27 -10 6z"/>
<path d="M12307 3523 c-9 -9 -8 -75 1 -90 4 -7 9 12 10 42 2 55 1 61 -11 48z"/>
<path d="M11185 2540 c3 -5 8 -10 11 -10 2 0 4 5 4 10 0 6 -5 10 -11 10 -5 0
-7 -4 -4 -10z"/>
<path d="M1990 2174 c0 -8 5 -12 10 -9 6 4 8 11 5 16 -9 14 -15 11 -15 -7z"/>
<path d="M10340 1659 c0 -5 5 -7 10 -4 6 3 10 8 10 11 0 2 -4 4 -10 4 -5 0
-10 -5 -10 -11z"/>
<path d="M2935 1620 c3 -5 10 -10 16 -10 5 0 9 5 9 10 0 6 -7 10 -16 10 -8 0
-12 -4 -9 -10z"/>
<path d="M9128 1083 c7 -3 16 -2 19 1 4 3 -2 6 -13 5 -11 0 -14 -3 -6 -6z"/>
<path d="M7698 493 c7 -3 16 -2 19 1 4 3 -2 6 -13 5 -11 0 -14 -3 -6 -6z"/>
</g>
</svg>
